<svg width="1122" height="1080" viewBox="0 0 1122 1080" fill="none" xmlns="http://www.w3.org/2000/svg">
<rect x="24" y="315.373" width="1114" height="1507.97" transform="rotate(-50 24 315.373)" fill="#72EFDD" class="background"/>
<g clip-path="url(#clip0)" class="img">
<path class='imgBackground' opacity="0" d="M637.08 347.32C594.8 374.06 539.96 372.32 491.91 358.42C443.86 344.52 399.71 319.73 352.91 302.12C313.598 287.349 272.553 277.683 230.78 273.36C171.11 267.19 104.48 274.7 62.9 317.93C16.6 366.08 20.15 452.93 70.23 497.11C95.7 519.59 129.06 530.62 158.15 548.17C187.24 565.72 214.15 594.87 211.68 628.75C209.39 660.11 182.73 684.18 155.14 699.28C133.81 710.95 107.54 723.69 104.97 747.86C102.49 771.25 124.57 789.58 145.66 800C214.46 834 299.22 833.67 367.75 799.14C392.2 786.82 414.68 770.44 440.32 760.84C507.65 735.63 581.83 761.01 653.12 770.29C713.654 778.128 775.135 774.082 834.12 758.38C869.42 748.96 904.86 734.56 929.66 707.73C947.54 688.38 958.66 663.9 969.15 639.73C980.303 613.943 991.023 587.977 1001.31 561.83C1007.49 546.13 1013.57 530.13 1015.16 513.33C1018.05 482.9 1005.88 452.82 989.29 427.13C949.89 366.14 883.58 323.26 811.78 312.37C739.98 301.48 663.99 322.77 608.29 369.3" fill="#34C39F"/>
<path opacity="0.1" d="M135.74 1004.53C210.707 1004.53 271.48 992.648 271.48 977.99C271.48 963.332 210.707 951.45 135.74 951.45C60.7729 951.45 0 963.332 0 977.99C0 992.648 60.7729 1004.53 135.74 1004.53Z" fill="#34C39F"/>
<path opacity="0.1" d="M538.99 949.1C696.137 949.1 823.53 937.218 823.53 922.56C823.53 907.902 696.137 896.02 538.99 896.02C381.843 896.02 254.45 907.902 254.45 922.56C254.45 937.218 381.843 949.1 538.99 949.1Z" fill="#34C39F"/>
<path d="M732.13 733.6C732.13 733.6 772.02 662.94 832.13 642.6C857.34 634.05 879.35 617.98 894.4 596.02C901.522 585.58 907.675 574.511 912.78 562.95" stroke="#535461" stroke-width="2" stroke-miterlimit="10"/>
<path d="M950.51 549.89C943.66 556.53 911.78 563.4 911.78 563.4C911.78 563.4 919.61 531.75 926.45 525.1C929.737 521.909 934.158 520.155 938.738 520.224C943.319 520.292 947.684 522.178 950.875 525.465C954.066 528.752 955.82 533.173 955.751 537.753C955.683 542.334 953.797 546.699 950.51 549.89Z" fill="#34C39F"/>
<path d="M932.48 607.18C923.12 609.03 892.63 597.47 892.63 597.47C892.63 597.47 916.4 575.15 925.75 573.29C927.997 572.793 930.32 572.749 932.584 573.162C934.847 573.574 937.006 574.435 938.932 575.693C940.859 576.951 942.515 578.581 943.803 580.488C945.091 582.394 945.986 584.539 946.434 586.796C946.882 589.053 946.875 591.376 946.413 593.63C945.951 595.885 945.044 598.024 943.744 599.922C942.444 601.821 940.778 603.441 938.844 604.687C936.91 605.934 934.746 606.781 932.48 607.18Z" fill="#34C39F"/>
<path d="M866.78 669.17C857.78 666.05 837.28 640.68 837.28 640.68C837.28 640.68 869.07 633.4 878.08 636.52C880.275 637.221 882.307 638.354 884.057 639.853C885.807 641.351 887.24 643.184 888.272 645.244C889.303 647.305 889.912 649.55 890.063 651.849C890.214 654.148 889.903 656.454 889.15 658.632C888.396 660.809 887.215 662.813 885.675 664.527C884.135 666.241 882.269 667.63 880.184 668.612C878.1 669.594 875.841 670.149 873.539 670.245C871.237 670.341 868.939 669.975 866.78 669.17Z" fill="#34C39F"/>
<path d="M806.57 704.88C797.16 703.33 772.68 681.77 772.68 681.77C772.68 681.77 802.78 669.23 812.19 670.77C814.428 671.139 816.571 671.945 818.497 673.142C820.423 674.34 822.095 675.905 823.416 677.748C824.737 679.591 825.683 681.677 826.198 683.885C826.714 686.094 826.789 688.382 826.42 690.62C826.051 692.858 825.245 695.001 824.048 696.927C822.85 698.853 821.285 700.525 819.442 701.846C817.599 703.167 815.513 704.113 813.305 704.628C811.096 705.144 808.808 705.219 806.57 704.85V704.88Z" fill="#34C39F"/>
<path d="M866.04 572.77C866.04 582.31 883.3 609.98 883.3 609.98C883.3 609.98 900.58 582.32 900.59 572.78C900.482 568.27 898.614 563.982 895.386 560.831C892.158 557.68 887.826 555.916 883.315 555.916C878.804 555.916 874.472 557.68 871.244 560.831C868.016 563.982 866.149 568.27 866.04 572.78V572.77Z" fill="#34C39F"/>
<path d="M796.12 615.4C798.97 624.5 823.71 645.74 823.71 645.74C823.71 645.74 831.93 614.18 829.08 605.08C827.712 600.704 824.661 597.051 820.599 594.924C816.537 592.797 811.796 592.371 807.42 593.74C803.044 595.108 799.391 598.159 797.264 602.221C795.137 606.283 794.712 611.024 796.08 615.4H796.12Z" fill="#34C39F"/>
<path d="M733.84 666.19C735.11 675.65 755.92 700.76 755.92 700.76C755.92 700.76 769.35 671.05 768.08 661.59C767.47 657.049 765.081 652.937 761.439 650.158C757.797 647.379 753.201 646.16 748.66 646.77C744.12 647.38 740.007 649.769 737.228 653.411C734.449 657.053 733.23 661.649 733.84 666.19Z" fill="#34C39F"/>
<path opacity="0.25" d="M950.51 549.89C943.66 556.53 911.78 563.4 911.78 563.4C911.78 563.4 919.61 531.75 926.45 525.1C929.737 521.909 934.158 520.155 938.738 520.224C943.319 520.292 947.684 522.178 950.875 525.465C954.066 528.752 955.82 533.173 955.751 537.753C955.683 542.334 953.797 546.699 950.51 549.89Z" fill="black"/>
<path opacity="0.25" d="M932.48 607.18C923.12 609.03 892.63 597.47 892.63 597.47C892.63 597.47 916.4 575.15 925.75 573.29C927.997 572.793 930.32 572.749 932.584 573.162C934.847 573.574 937.006 574.435 938.932 575.693C940.859 576.951 942.515 578.581 943.803 580.488C945.091 582.394 945.986 584.539 946.434 586.796C946.882 589.053 946.875 591.376 946.413 593.63C945.951 595.885 945.044 598.024 943.744 599.922C942.444 601.821 940.778 603.441 938.844 604.687C936.91 605.934 934.746 606.781 932.48 607.18Z" fill="black"/>
<path opacity="0.25" d="M866.78 669.17C857.78 666.05 837.28 640.68 837.28 640.68C837.28 640.68 869.07 633.4 878.08 636.52C880.275 637.221 882.307 638.354 884.057 639.853C885.807 641.351 887.24 643.184 888.272 645.244C889.303 647.305 889.912 649.55 890.063 651.849C890.214 654.148 889.903 656.454 889.15 658.632C888.396 660.809 887.215 662.813 885.675 664.527C884.135 666.241 882.269 667.63 880.184 668.612C878.1 669.594 875.841 670.149 873.539 670.245C871.237 670.341 868.939 669.975 866.78 669.17Z" fill="black"/>
<path opacity="0.25" d="M806.57 704.88C797.16 703.33 772.68 681.77 772.68 681.77C772.68 681.77 802.78 669.23 812.19 670.77C814.428 671.139 816.571 671.945 818.497 673.142C820.423 674.34 822.095 675.905 823.416 677.748C824.737 679.591 825.683 681.677 826.198 683.885C826.714 686.094 826.789 688.382 826.42 690.62C826.051 692.858 825.245 695.001 824.048 696.927C822.85 698.853 821.285 700.525 819.442 701.846C817.599 703.167 815.513 704.113 813.305 704.628C811.096 705.144 808.808 705.219 806.57 704.85V704.88Z" fill="black"/>
<path opacity="0.25" d="M866.04 572.77C866.04 582.31 883.3 609.98 883.3 609.98C883.3 609.98 900.58 582.32 900.59 572.78C900.482 568.27 898.614 563.982 895.386 560.831C892.158 557.68 887.826 555.916 883.315 555.916C878.804 555.916 874.472 557.68 871.244 560.831C868.016 563.982 866.149 568.27 866.04 572.78V572.77Z" fill="black"/>
<path opacity="0.25" d="M796.12 615.4C798.97 624.5 823.71 645.74 823.71 645.74C823.71 645.74 831.93 614.18 829.08 605.08C827.712 600.704 824.661 597.051 820.599 594.924C816.537 592.797 811.796 592.371 807.42 593.74C803.044 595.108 799.391 598.159 797.264 602.221C795.137 606.283 794.712 611.024 796.08 615.4H796.12Z" fill="black"/>
<path opacity="0.25" d="M733.84 666.19C735.11 675.65 755.92 700.76 755.92 700.76C755.92 700.76 769.35 671.05 768.08 661.59C767.47 657.049 765.081 652.937 761.439 650.158C757.797 647.379 753.201 646.16 748.66 646.77C744.12 647.38 740.007 649.769 737.228 653.411C734.449 657.053 733.23 661.649 733.84 666.19Z" fill="black"/>
<path d="M734.43 732.19C734.43 732.19 742.26 651.43 788.92 608.48C808.608 590.585 821.962 566.788 826.98 540.66C829.26 528.237 830.398 515.631 830.38 503" stroke="#535461" stroke-width="2" stroke-miterlimit="10"/>
<path d="M859.63 475.77C856.06 484.62 829.7 503.77 829.7 503.77C829.7 503.77 824.02 471.66 827.59 462.77C829.435 458.723 832.771 455.544 836.902 453.895C841.032 452.246 845.64 452.255 849.765 453.919C853.89 455.583 857.213 458.774 859.044 462.828C860.874 466.882 861.07 471.486 859.59 475.68L859.63 475.77Z" fill="#34C39F"/>
<path d="M866.35 535.43C858.55 540.92 825.99 542.71 825.99 542.71C825.99 542.71 838.68 512.71 846.48 507.18C850.228 504.602 854.842 503.607 859.319 504.411C863.796 505.215 867.775 507.753 870.392 511.474C873.009 515.195 874.052 519.798 873.296 524.283C872.539 528.768 870.043 532.774 866.35 535.43Z" fill="#34C39F"/>
<path d="M831.44 618.71C821.94 619.51 792.93 604.62 792.93 604.62C792.93 604.62 819.04 585.09 828.55 584.29C830.81 584.1 833.085 584.357 835.246 585.047C837.407 585.737 839.41 586.845 841.143 588.309C842.875 589.773 844.302 591.564 845.342 593.579C846.382 595.594 847.015 597.795 847.205 600.055C847.395 602.315 847.138 604.59 846.448 606.751C845.758 608.912 844.65 610.915 843.186 612.648C841.722 614.38 839.931 615.807 837.916 616.847C835.901 617.887 833.7 618.52 831.44 618.71Z" fill="#34C39F"/>
<path d="M790.84 675.77C781.61 678.16 750.5 668.39 750.5 668.39C750.5 668.39 772.94 644.72 782.17 642.33C786.604 641.18 791.314 641.839 795.263 644.162C799.211 646.484 802.075 650.281 803.225 654.715C804.375 659.149 803.716 663.859 801.393 667.807C799.071 671.756 795.274 674.62 790.84 675.77Z" fill="#34C39F"/>
<path d="M791.66 530.87C795.53 539.59 822.52 557.87 822.52 557.87C822.52 557.87 827.11 525.59 823.25 516.87C821.393 512.681 817.949 509.401 813.674 507.751C809.399 506.102 804.644 506.218 800.455 508.075C796.266 509.931 792.986 513.376 791.337 517.651C789.687 521.926 789.804 526.681 791.66 530.87Z" fill="#34C39F"/>
<path d="M745.02 598.21C751.32 605.37 782.55 614.76 782.55 614.76C782.55 614.76 777.27 582.58 770.98 575.41C767.957 571.962 763.687 569.857 759.111 569.557C754.535 569.257 750.028 570.787 746.58 573.81C743.132 576.833 741.027 581.103 740.727 585.679C740.427 590.255 741.957 594.762 744.98 598.21H745.02Z" fill="#34C39F"/>
<path d="M708.67 669.88C713.67 678.01 742.86 692.54 742.86 692.54C742.86 692.54 743.1 659.93 738.11 651.8C735.712 647.896 731.862 645.104 727.406 644.039C722.951 642.974 718.254 643.722 714.35 646.12C710.446 648.518 707.654 652.368 706.589 656.824C705.524 661.279 706.272 665.976 708.67 669.88Z" fill="#34C39F"/>
<path d="M281.84 221V248.38V926.46H789.24V248.38V221H281.84Z" fill="url(#paint0_linear)"/>
<path d="M784.79 227.19H286.29V254.08H784.79V227.19Z" fill="#F6F7F9"/>
<g opacity="0.2">
<path opacity="0.2" d="M784.79 227.19H286.29V254.08H784.79V227.19Z" fill="#34C39F"/>
</g>
<path d="M784.79 254.08H286.29V920.27H784.79V254.08Z" fill="#F6F7F9"/>
<path d="M299.4 245.19C301.918 245.19 303.96 243.148 303.96 240.63C303.96 238.112 301.918 236.07 299.4 236.07C296.882 236.07 294.84 238.112 294.84 240.63C294.84 243.148 296.882 245.19 299.4 245.19Z" fill="#F6F7F9"/>
<path d="M311.76 245.19C314.278 245.19 316.32 243.148 316.32 240.63C316.32 238.112 314.278 236.07 311.76 236.07C309.242 236.07 307.2 238.112 307.2 240.63C307.2 243.148 309.242 245.19 311.76 245.19Z" fill="#F6F7F9"/>
<path d="M324.12 245.19C326.638 245.19 328.68 243.148 328.68 240.63C328.68 238.112 326.638 236.07 324.12 236.07C321.602 236.07 319.56 238.112 319.56 240.63C319.56 243.148 321.602 245.19 324.12 245.19Z" fill="#F6F7F9"/>
<g opacity="0.2">
<path opacity="0.2" d="M695.81 295.15H375.26V307.7H695.81V295.15Z" fill="#34C39F"/>
</g>
<path d="M695.81 295.15H653.22V307.7H695.81V295.15Z" fill="#34C39F"/>
<g opacity="0.2">
<path opacity="0.2" d="M531.04 551.62H329.32V696.11H531.04V551.62Z" fill="#34C39F"/>
</g>
<g opacity="0.2">
<path opacity="0.2" d="M531.04 364.19H329.32V508.68H531.04V364.19Z" fill="#34C39F"/>
</g>
<g opacity="0.2">
<path opacity="0.2" d="M531.04 736.61H329.32V881.1H531.04V736.61Z" fill="#34C39F"/>
</g>
<g opacity="0.2">
<path opacity="0.2" d="M741.76 551.62H540.04V696.11H741.76V551.62Z" fill="#34C39F"/>
</g>
<g opacity="0.2">
<path opacity="0.2" d="M741.76 364.19H540.04V508.68H741.76V364.19Z" fill="#34C39F"/>
</g>
<g opacity="0.2">
<path opacity="0.2" d="M741.76 736.61H540.04V881.1H741.76V736.61Z" fill="#34C39F"/>
</g>
<path d="M931.57 855.5C931.57 855.5 938.71 864.83 928.28 878.91C917.85 892.99 909.28 904.91 912.73 913.67C912.73 913.67 928.46 887.51 941.27 887.15C954.08 886.79 945.66 871.23 931.57 855.5Z" fill="#3ACC6C"/>
<path opacity="0.1" d="M931.57 855.5C932.193 856.399 932.685 857.382 933.03 858.42C945.53 873.1 952.18 886.8 940.17 887.15C928.99 887.47 915.56 907.47 912.35 912.52C912.456 912.91 912.582 913.294 912.73 913.67C912.73 913.67 928.46 887.51 941.27 887.15C954.08 886.79 945.66 871.23 931.57 855.5Z" fill="black"/>
<path d="M944.84 867.39C944.84 870.67 944.47 873.33 944.02 873.33C943.57 873.33 943.19 870.67 943.19 867.39C943.19 864.11 943.65 865.65 944.11 865.65C944.57 865.65 944.84 864.1 944.84 867.39Z" fill="#FFD037"/>
<path d="M949.39 871.31C946.51 872.88 943.99 873.83 943.78 873.43C943.57 873.03 945.72 871.43 948.6 869.86C951.48 868.29 950.35 869.44 950.6 869.86C950.85 870.28 952.27 869.77 949.39 871.31Z" fill="#FFD037"/>
<path d="M893.89 855.5C893.89 855.5 886.75 864.83 897.18 878.91C907.61 892.99 916.18 904.91 912.73 913.67C912.73 913.67 897 887.51 884.19 887.15C871.38 886.79 879.78 871.23 893.89 855.5Z" fill="#3ACC6C"/>
<path opacity="0.1" d="M893.89 855.5C893.267 856.399 892.775 857.382 892.43 858.42C879.93 873.1 873.28 886.8 885.29 887.15C896.48 887.47 909.9 907.47 913.11 912.52C913.009 912.911 912.882 913.296 912.73 913.67C912.73 913.67 897 887.51 884.19 887.15C871.38 886.79 879.78 871.23 893.89 855.5Z" fill="black"/>
<path d="M880.62 867.39C880.62 870.67 880.99 873.33 881.45 873.33C881.91 873.33 882.27 870.67 882.27 867.39C882.27 864.11 881.81 865.65 881.36 865.65C880.91 865.65 880.62 864.1 880.62 867.39Z" fill="#FFD037"/>
<path d="M876.07 871.31C878.96 872.88 881.47 873.83 881.69 873.43C881.91 873.03 879.74 871.43 876.86 869.86C873.98 868.29 875.11 869.44 874.86 869.86C874.61 870.28 873.19 869.77 876.07 871.31Z" fill="#FFD037"/>
<path opacity="0.1" d="M912.73 985.05C953.93 985.05 987.33 979.924 987.33 973.6C987.33 967.276 953.93 962.15 912.73 962.15C871.53 962.15 838.13 967.276 838.13 973.6C838.13 979.924 871.53 985.05 912.73 985.05Z" fill="#34C39F"/>
<path d="M951.13 901.1L950.77 904.01L950.27 908.13L950.06 909.84L949.56 913.96L949.34 915.68L948.84 919.79L943.13 966.59C942.62 970.77 935.8 974.02 927.56 974.02H897.9C889.66 974.02 882.9 970.77 882.34 966.59L876.62 919.77L876.12 915.66L875.91 913.94L875.4 909.82L875.19 908.11L874.69 903.99L874.33 901.08C874.05 898.77 877.78 896.77 882.4 896.77H943.07C947.72 896.77 951.42 898.77 951.13 901.1Z" fill="#65617D"/>
<path d="M950.77 904.01L950.27 908.12H875.19L874.69 904.01H950.77Z" fill="#9D9CB5"/>
<path d="M950.06 909.84L949.56 913.96H875.91L875.4 909.84H950.06Z" fill="#9D9CB5"/>
<path d="M949.34 915.67L948.84 919.79H876.62L876.12 915.67H949.34Z" fill="#9D9CB5"/>
<path d="M591.61 392.11C591.61 392.11 589.78 387.54 602.12 388.68C614.46 389.82 649.89 393.76 665.21 390.31C680.53 386.86 689.66 385.76 688.75 390.31C687.84 394.86 662.24 405.14 662.24 405.14L629.09 408.57L604.64 404.68L591.51 396.91L591.61 392.11Z" fill="#34C39F"/>
<path opacity="0.1" d="M688.78 390.31C687.86 394.86 662.27 405.14 662.27 405.14L629.12 408.57L604.67 404.69L591.55 396.92L591.64 392.12C591.513 391.725 591.512 391.299 591.637 390.903C591.763 390.507 592.008 390.16 592.34 389.91C593.47 388.91 596.11 388.13 602.15 388.69C614.5 389.83 649.92 393.76 665.24 390.31C677.72 387.5 686.1 386.25 688.24 388.31C688.504 388.562 688.694 388.882 688.789 389.235C688.884 389.587 688.881 389.959 688.78 390.31Z" fill="black"/>
<path d="M708.48 459.54C687.15 463.646 667.035 472.555 649.66 485.59C648.781 483.251 647.125 481.285 644.97 480.02C643.498 479.107 641.892 478.432 640.21 478.02C638.68 477.63 637.21 478.56 635.86 479.9C634.307 481.619 633.004 483.548 631.99 485.63C608.68 469.63 573.32 459.42 573.32 459.42V456.22C573.32 455.59 573.43 454.83 573.55 453.97C573.67 453.11 573.82 452.35 574.01 451.42C577.01 436.16 588.87 401.29 588.87 401.29H592.54H602.28L628.28 406.69L657.53 404.9L686.99 398.77L690.81 397.97C697.18 402.97 704.41 437.97 707.25 452.87C707.61 454.76 707.89 456.32 708.1 457.47C708.35 458.77 708.48 459.54 708.48 459.54Z" fill="#34C39F"/>
<path d="M578.16 452.93C578.93 438.28 590.57 406.53 592.54 401.26H588.87C588.87 401.26 576.31 438.26 573.76 452.7C573.754 452.736 573.754 452.774 573.76 452.81C573.69 453.2 573.62 453.58 573.57 453.94C573.45 454.8 573.37 455.56 573.34 456.19V459.39C573.34 459.39 608.7 469.61 632.01 485.6C633.024 483.518 634.327 481.589 635.88 479.87C626.97 471.77 593.18 458.57 578.16 452.93Z" fill="#34C39F"/>
<path d="M708.1 457.43C708.01 456.92 707.9 456.33 707.78 455.68C707.63 454.84 707.45 453.89 707.25 452.83C704.41 437.91 697.18 402.9 690.81 397.93L686.99 398.73C689.31 404.96 704.26 445.64 702.99 453.58C677.99 458.58 652.65 474.83 644.99 480.02C647.145 481.285 648.801 483.251 649.68 485.59C667.055 472.555 687.17 463.646 708.5 459.54C708.5 459.54 708.35 458.77 708.1 457.43Z" fill="#34C39F"/>
<path opacity="0.1" d="M579.08 452.01C579.84 437.36 591.49 405.61 593.46 400.35H589.78C589.78 400.35 577.22 437.35 574.67 451.78C574.67 451.78 574.67 451.86 574.67 451.89C574.597 452.29 574.537 452.67 574.49 453.03C574.37 453.89 574.29 454.65 574.26 455.28V458.48C574.26 458.48 609.61 468.69 632.93 484.69C633.936 482.605 635.236 480.676 636.79 478.96C627.88 470.88 594.1 457.65 579.08 452.01Z" fill="black"/>
<path d="M578.16 452.93C578.93 438.28 590.57 406.53 592.54 401.26H588.87C588.87 401.26 576.31 438.26 573.76 452.7C573.754 452.736 573.754 452.774 573.76 452.81C573.69 453.2 573.62 453.58 573.57 453.94C573.45 454.8 573.37 455.56 573.34 456.19V459.39C573.34 459.39 608.7 469.61 632.01 485.6C633.024 483.518 634.327 481.589 635.88 479.87C626.97 471.77 593.18 458.57 578.16 452.93Z" fill="#34C39F"/>
<path opacity="0.1" d="M707.19 456.51L706.87 454.76C706.71 453.92 706.54 452.98 706.34 451.91C703.51 437 696.27 401.99 689.9 397.01L686.09 397.82C688.41 404.05 703.36 444.73 702.09 452.67C677.09 457.67 651.74 473.92 644.09 479.1C646.246 480.369 647.901 482.338 648.78 484.68C666.149 471.638 686.261 462.726 707.59 458.62C707.59 458.62 707.44 457.87 707.19 456.51Z" fill="black"/>
<path d="M708.1 457.43C708.01 456.92 707.9 456.33 707.78 455.68C707.63 454.84 707.45 453.89 707.25 452.83C704.41 437.91 697.18 402.9 690.81 397.93L686.99 398.73C689.31 404.96 704.26 445.64 702.99 453.58C677.99 458.58 652.65 474.83 644.99 480.02C647.145 481.285 648.801 483.251 649.68 485.59C667.055 472.555 687.17 463.646 708.5 459.54C708.5 459.54 708.35 458.77 708.1 457.43Z" fill="#34C39F"/>
<path opacity="0.1" d="M586.85 419.34C586.85 419.34 610.05 433.94 615.47 412.56L620.63 413.94C620.63 413.94 622.33 437.63 585.31 424.11L586.85 419.34Z" fill="black"/>
<path d="M586.85 417.51C586.85 417.51 610.05 432.11 615.47 410.73L620.63 412.11C620.63 412.11 622.33 435.8 585.31 422.28L586.85 417.51Z" fill="#34C39F"/>
<path opacity="0.1" d="M659.85 413.25C659.85 413.25 662.85 430.72 694.64 422.25L693.52 418.95C693.52 418.95 671.81 427.95 663.94 412.32L659.85 413.25Z" fill="black"/>
<path d="M659.85 411.42C659.85 411.42 662.85 428.89 694.64 420.42L693.52 417.12C693.52 417.12 671.81 426.12 663.94 410.49L659.85 411.42Z" fill="#34C39F"/>
<path opacity="0.1" d="M638.69 413.02V449.48H644.33C644.33 449.48 652.13 446.67 651.95 430.28C651.77 413.89 650.58 409.48 650.58 409.48L638.69 413.02Z" fill="black"/>
<path d="M637.78 412.11V448.57H643.42C643.42 448.57 651.22 445.76 651.04 429.37C650.86 412.98 649.66 408.57 649.66 408.57L637.78 412.11Z" fill="#34C39F"/>
<path opacity="0.1" d="M690.78 399.77C688.48 404.05 667.6 411.08 663.91 412.29L663.35 412.47C663.35 412.47 662.03 412.81 659.82 413.27C653.1 414.67 638.12 417.27 626.82 414.99C625.18 414.67 623.48 414.32 621.75 413.99L617.75 413.12C604.75 410.23 591.3 406.45 588.91 403.12C588.91 403.12 589.56 392.25 591.75 392.54C593.94 392.83 618.39 403.12 618.39 403.12L618.74 403.17C619.37 403.25 620.8 403.43 622.81 403.66C630.75 404.53 647.48 405.91 656.48 403.5C656.91 403.38 657.31 403.26 657.7 403.12C658.38 402.89 659.09 402.65 659.82 402.38C671.4 398.28 688.74 390.94 688.74 390.94C688.74 390.94 693.32 395.06 690.78 399.77Z" fill="black"/>
<path opacity="0.1" d="M688.78 390.31C687.86 394.86 662.27 405.14 662.27 405.14L629.12 408.57L604.67 404.69L591.55 396.92L591.64 392.12C591.513 391.725 591.512 391.299 591.637 390.903C591.763 390.507 592.008 390.16 592.34 389.91C596.69 391.23 618.34 400.34 618.34 400.34L618.69 400.39C619.32 400.47 620.75 400.65 622.76 400.88C630.7 401.75 647.43 403.13 656.43 400.72C656.86 400.6 657.26 400.48 657.65 400.34C658.33 400.12 659.04 399.87 659.77 399.6C670.24 395.89 685.43 389.53 688.24 388.35C688.497 388.599 688.683 388.912 688.778 389.256C688.873 389.601 688.873 389.965 688.78 390.31Z" fill="black"/>
<path d="M690.78 397.93C688.48 402.21 667.6 409.23 663.91 410.44L663.35 410.63C663.35 410.63 662.03 410.96 659.82 411.42C653.1 412.82 638.12 415.42 626.82 413.14C625.18 412.82 623.48 412.47 621.75 412.14L617.75 411.27C604.75 408.38 591.3 404.6 588.91 401.27C588.91 401.27 589.56 390.4 591.75 390.7C593.94 391 618.39 401.27 618.39 401.27L618.74 401.32C619.37 401.4 620.8 401.59 622.81 401.81C630.75 402.68 647.48 404.06 656.48 401.65C656.91 401.53 657.31 401.41 657.7 401.27C658.38 401.05 659.09 400.8 659.82 400.53C671.4 396.43 688.74 389.09 688.74 389.09C688.74 389.09 693.32 393.24 690.78 397.93Z" fill="#34C39F"/>
<path opacity="0.1" d="M642.65 413.14C644.671 413.14 646.31 411.501 646.31 409.48C646.31 407.459 644.671 405.82 642.65 405.82C640.629 405.82 638.99 407.459 638.99 409.48C638.99 411.501 640.629 413.14 642.65 413.14Z" fill="black"/>
<path d="M642.65 412.22C644.671 412.22 646.31 410.581 646.31 408.56C646.31 406.539 644.671 404.9 642.65 404.9C640.629 404.9 638.99 406.539 638.99 408.56C638.99 410.581 640.629 412.22 642.65 412.22Z" fill="#34C39F"/>
<path opacity="0.1" d="M623.68 401.77L622.68 412.09L618.68 411.22L619.68 401.28C620.24 401.38 621.68 401.57 623.68 401.77Z" fill="black"/>
<path d="M622.78 401.77L621.78 412.09L617.78 411.22L618.78 401.28C619.33 401.38 620.78 401.57 622.78 401.77Z" fill="#34C39F"/>
<path opacity="0.1" d="M663.02 410.44L662.46 410.63C662.46 410.63 661.15 410.96 658.93 411.42L655.52 401.63C655.95 401.51 656.36 401.39 656.75 401.25C657.43 401.03 658.14 400.78 658.87 400.51L663.02 410.44Z" fill="black"/>
<path d="M663.94 410.44L663.38 410.63C663.38 410.63 662.06 410.96 659.85 411.42L656.44 401.63C656.87 401.51 657.27 401.39 657.66 401.25C658.34 401.03 659.05 400.78 659.78 400.51L663.94 410.44Z" fill="#34C39F"/>
<g opacity="0.5">
<path opacity="0.5" d="M406.02 383.77C410.699 383.801 415.285 385.074 419.31 387.46C419.31 387.46 431.49 388.94 438.13 387.46C444.77 385.98 448.13 380.82 449.39 382.29C450.65 383.76 450.68 397.61 450.68 397.61L444.96 412.93L432.04 422.52L411.56 416.62L404.78 399.29L406.02 383.77Z" fill="#34C39F"/>
<path opacity="0.1" d="M450.68 397.63L444.96 412.95L432.04 422.54L411.56 416.64L404.78 399.29L406.07 383.79H406.37C410.946 383.906 415.418 385.179 419.37 387.49C419.37 387.49 431.55 388.97 438.19 387.49C444.5 386.09 447.82 381.35 449.19 382.15C449.271 382.188 449.342 382.242 449.4 382.31C450.68 383.77 450.68 397.63 450.68 397.63Z" fill="black"/>
<path opacity="0.1" d="M450.68 397.63L444.96 412.95L432.04 422.54L411.56 416.64L404.78 399.29L406.07 383.79H406.37C407.51 388.68 412.37 404.12 427.85 405.21C443.77 406.32 448.29 387.38 449.23 382.16C449.311 382.198 449.382 382.252 449.44 382.32C450.68 383.77 450.68 397.63 450.68 397.63Z" fill="black"/>
<path opacity="0.5" d="M406.02 383.77C406.02 383.77 409.34 405.36 427.8 406.65C446.26 407.94 449.39 382.29 449.39 382.29C449.39 382.29 476.15 391.06 482.39 406.7C488.63 422.34 493.28 434.89 493.28 434.89C493.28 434.89 491.28 438.39 489.03 438.76C486.78 439.13 471.5 449.65 471.5 449.65C471.5 449.65 471.32 479.55 472.98 481.39C474.64 483.23 474.09 491.17 469.1 490.8C464.11 490.43 429.61 482.68 400.1 489.14C400.1 489.14 387.74 493.57 388.1 486.37C388.46 479.17 389.02 450.94 389.02 450.94C389.02 450.94 370.38 442.82 369.28 442.82C368.18 442.82 365.4 441.36 368.35 436.55C371.3 431.74 375 415.33 375 415.33C375 415.33 382.4 391.77 406.02 383.77Z" fill="#34C39F"/>
<path opacity="0.1" d="M463.41 422.54C463.41 422.54 468.95 426.6 467.66 429.74C466.37 432.88 463.41 422.54 463.41 422.54Z" fill="black"/>
<path opacity="0.1" d="M471.53 426.44C471.014 428.24 471.014 430.15 471.53 431.95V426.44Z" fill="black"/>
<path opacity="0.1" d="M475.22 436.57C475.22 436.57 475.96 441.57 473.75 442.1L475.22 436.57Z" fill="black"/>
<path opacity="0.1" d="M399.93 421.25C399.93 421.25 389.6 430.25 393.1 433.8L399.93 421.25Z" fill="black"/>
<path opacity="0.1" d="M393.47 443.03C393.47 443.03 393.3 452.44 396.15 453.18L393.47 443.03Z" fill="black"/>
<path opacity="0.1" d="M423.18 474.58C423.18 474.58 430.18 469.79 432.04 469.97L423.18 474.58Z" fill="black"/>
<path opacity="0.1" d="M430.18 479.57C430.18 479.57 437.76 474.21 439.79 474.57L430.18 479.57Z" fill="black"/>
</g>
<g opacity="0.5">
<path opacity="0.5" d="M594.78 565.42C594.78 565.42 655.16 568.28 685.18 566.52L684.52 574.44L631.4 581.44L615.68 576.6L594.78 565.42Z" fill="#34C39F"/>
<path opacity="0.1" d="M685.22 566.52L684.56 574.44L631.45 581.44L615.72 576.6L594.78 565.42C594.78 565.42 596.02 565.49 598.23 565.58C611.33 566.15 658.5 567.99 684.4 566.58L685.22 566.52Z" fill="black"/>
<path opacity="0.5" d="M706.12 679.14C694.46 686.14 653.99 679.36 653.99 679.36L642.77 639.36L630.23 680.05C612.42 686.43 575.68 677.19 575.68 677.19L589.98 589.19L592.45 577.06L594.78 565.42L617.44 572.24C617.44 572.24 624.25 576.86 652.63 575.54C681.01 574.22 685.18 566.54 685.18 566.54C686.43 566.9 687.62 571.31 688.82 576.79C690.56 584.79 692.33 595.05 694.42 598.44C697.98 604.14 706.12 679.14 706.12 679.14Z" fill="#34C39F"/>
<path opacity="0.1" d="M688.86 577.65C663.56 591.54 641.78 591.16 641.78 591.16C636.39 591.82 592.45 577.93 592.45 577.93L594.78 566.3L617.44 573.12C617.44 573.12 624.25 577.74 652.63 576.42C681.01 575.1 685.18 567.42 685.18 567.42C686.47 567.77 687.66 572.17 688.86 577.65Z" fill="black"/>
<path opacity="0.1" d="M685.22 566.52L684.56 574.44L631.45 581.44L615.72 576.6L594.78 565.42C594.78 565.42 596.02 565.49 598.23 565.58L617.43 571.36C617.43 571.36 624.24 575.98 652.62 574.66C674.91 573.66 682.27 568.66 684.4 566.57L685.22 566.52Z" fill="black"/>
<path opacity="0.5" d="M688.86 576.77C663.56 590.66 641.78 590.28 641.78 590.28C636.39 590.94 592.45 577.05 592.45 577.05L594.78 565.42L617.44 572.24C617.44 572.24 624.25 576.86 652.63 575.54C681.01 574.22 685.18 566.54 685.18 566.54C686.47 566.88 687.66 571.29 688.86 576.77Z" fill="#34C39F"/>
<path opacity="0.1" d="M646.07 588.18C647.346 588.18 648.38 587.146 648.38 585.87C648.38 584.594 647.346 583.56 646.07 583.56C644.794 583.56 643.76 584.594 643.76 585.87C643.76 587.146 644.794 588.18 646.07 588.18Z" fill="black"/>
<path opacity="0.5" d="M646.07 587.3C647.346 587.3 648.38 586.266 648.38 584.99C648.38 583.714 647.346 582.68 646.07 582.68C644.794 582.68 643.76 583.714 643.76 584.99C643.76 586.266 644.794 587.3 646.07 587.3Z" stroke="#34C39F" stroke-miterlimit="10"/>
<path opacity="0.1" d="M587.01 626.35C587.01 626.35 591.08 638.45 593.94 638.23C596.8 638.01 587.01 626.35 587.01 626.35Z" fill="black"/>
<path opacity="0.1" d="M584.37 638.23C584.37 638.23 586.9 645.49 589.54 646.7L584.37 638.23Z" fill="black"/>
<path opacity="0.1" d="M584.37 645.82C584.37 645.82 588.37 650.88 590.74 652.09L584.37 645.82Z" fill="black"/>
<path opacity="0.1" d="M691.78 600.07C691.78 600.07 695.52 605.68 691.78 606.89V600.07Z" fill="black"/>
<path opacity="0.1" d="M693.48 609.19C689.14 604.04 691.82 616.19 691.82 616.19C691.82 616.19 694.59 610.51 693.48 609.19Z" fill="black"/>
<path opacity="0.1" d="M695.67 615.46C695.67 615.46 689.07 625.25 690.39 626.35L695.67 615.46Z" fill="black"/>
<path opacity="0.1" d="M608.36 600.28C600.27 600.28 591.83 596.62 591.36 596.4L591.72 595.59C591.88 595.67 608.03 602.68 616.77 597.42C620.07 595.42 621.92 591.9 622.28 586.92L623.16 586.99C622.78 592.27 620.78 595.99 617.22 598.17C614.514 599.666 611.45 600.396 608.36 600.28Z" fill="black"/>
<path opacity="0.5" d="M608.36 599.4C600.27 599.4 591.83 595.74 591.36 595.52L591.72 594.72C591.88 594.79 608.03 601.8 616.77 596.54C620.07 594.54 621.92 591.02 622.28 586.04L623.16 586.11C622.78 591.39 620.78 595.11 617.22 597.29C614.514 598.786 611.45 599.516 608.36 599.4Z" fill="#34C39F"/>
<path opacity="0.1" d="M674.78 600.94C672.708 600.97 670.657 600.529 668.78 599.65C662.22 596.49 661.16 588.75 661.11 588.42L661.99 588.31C661.99 588.39 663.04 595.92 669.17 598.86C674.63 601.49 682.38 599.86 692.17 593.86L692.62 594.61C685.65 598.83 679.68 600.94 674.78 600.94Z" fill="black"/>
<path opacity="0.5" d="M674.78 600.06C672.708 600.09 670.657 599.649 668.78 598.77C662.22 595.61 661.16 587.87 661.11 587.54L661.99 587.43C661.99 587.51 663.04 595.04 669.17 597.98C674.63 600.61 682.38 598.98 692.17 592.98L692.62 593.73C685.65 597.95 679.68 600.06 674.78 600.06Z" fill="#34C39F"/>
</g>
<path d="M411.12 566.77C411.12 566.77 422.47 582.62 430.18 581.08C437.89 579.54 438.65 577.85 445.5 566.77L451.12 579.7L444.5 595.7L436.66 605.85L420.04 603.24L414.66 585.08L411.12 566.77Z" fill="#34C39F"/>
<path opacity="0.1" d="M451.12 579.69L444.5 595.69L436.66 605.84L420.04 603.23L414.66 585.07L411.12 566.77C411.12 566.77 412.12 568.15 413.68 570.05C417.49 574.6 424.74 582.16 430.18 581.05C437.78 579.53 438.63 577.86 445.23 567.19L445.5 566.74L451.12 579.69Z" fill="black"/>
<path opacity="0.1" d="M451.12 579.69L444.5 595.69L436.66 605.84L420.04 603.23L414.66 585.07L411.12 566.77C411.12 566.77 412.12 568.15 413.68 570.05C416.16 578.05 421.49 590.88 430.18 590.77C439.99 590.66 443.95 574.41 445.23 567.22L445.5 566.77L451.12 579.69Z" fill="black"/>
<path d="M405.12 566.3C405.12 566.3 401.27 565.84 403.27 570.61C405.27 575.38 408.96 591.07 407.12 594.3C405.28 597.53 406.2 606.3 398.2 608L400.5 617.07C400.5 617.07 400.96 637.07 400.04 640C399.12 642.93 398.96 659.07 399.27 660.76C399.58 662.45 399.43 673.53 398.2 674C396.97 674.47 396.2 679.84 400.2 680.76C404.2 681.68 421.27 682.15 424.35 683.07C427.43 683.99 449.27 683.07 449.27 683.07C449.27 683.07 458.5 681.84 460.81 681.07C463.12 680.3 463.58 678.46 462.81 674.92C462.04 671.38 458.5 645.69 459.27 642.46C460.04 639.23 460.2 607.69 460.2 607.69C460.2 607.69 454.2 605.69 454.2 599.84C454.2 593.99 451.89 578.3 456.66 568.46C456.66 568.46 452.81 565.82 452.2 566.29C451.59 566.76 445.78 565.07 445.78 565.07C445.78 565.07 442.78 591.84 430.23 591.99C417.68 592.14 412.09 565.07 412.09 565.07C412.09 565.07 412.2 562.61 405.12 566.3Z" fill="#34C39F"/>
<path opacity="0.1" d="M423.27 652.15C423.27 652.15 425.86 658.46 430.18 659.38C434.5 660.3 423.27 652.15 423.27 652.15Z" fill="black"/>
<path opacity="0.1" d="M419.27 657.07C419.27 657.07 427.63 663.84 427.27 665.23L419.27 657.07Z" fill="black"/>
<path opacity="0.1" d="M402.5 617.07C402.5 617.07 409.12 621.53 409.12 624.76L402.5 617.07Z" fill="black"/>
<path opacity="0.1" d="M406.96 631.07C406.96 631.07 405.12 624.61 403.89 623.23L406.96 631.07Z" fill="black"/>
<path opacity="0.1" d="M403.89 633.53C403.89 633.53 406.66 639.07 406.96 640.61L403.89 633.53Z" fill="black"/>
<path opacity="0.1" d="M457.58 622.3C457.58 622.3 448.97 624.92 449.73 628.15L457.58 622.3Z" fill="black"/>
<path opacity="0.1" d="M449.69 652.15C449.69 652.15 460.97 639.07 457.58 639.38C454.19 639.69 449.69 652.15 449.69 652.15Z" fill="black"/>
<g opacity="0.1">
<path opacity="0.1" d="M454.19 599.84C454.19 597.14 453.7 592.34 453.64 586.99C453.58 593.13 454.19 598.81 454.19 601.84C454.19 607.56 459.92 609.59 460.19 609.68C460.19 608.43 460.19 607.68 460.19 607.68C460.19 607.68 454.19 605.69 454.19 599.84Z" fill="black"/>
<path opacity="0.1" d="M462.78 676.92C462.897 677.445 462.988 677.976 463.05 678.51C463.178 677.307 463.086 676.09 462.78 674.92C462.12 671.92 459.44 652.66 459.16 645.14C458.86 650.28 462.08 673.56 462.78 676.92Z" fill="black"/>
<path opacity="0.1" d="M399.13 656.97C399.13 651.48 399.44 643.91 400.04 641.97C400.53 640.41 400.63 634.03 400.62 628.39C400.62 633.45 400.47 638.59 400.04 639.97C399.36 642.15 399.1 651.53 399.13 656.97Z" fill="black"/>
<path opacity="0.1" d="M405.12 568.3C412.19 564.61 412.04 567.07 412.04 567.07C412.04 567.07 417.58 594.15 430.18 593.99C442.78 593.83 445.78 567.07 445.78 567.07C445.78 567.07 451.63 568.76 452.24 568.29C452.85 567.82 454.9 569.29 456.03 570.01C456.24 569.48 456.46 568.96 456.71 568.46C456.71 568.46 452.86 565.82 452.24 566.29C451.62 566.76 445.78 565.07 445.78 565.07C445.78 565.07 442.78 591.84 430.23 591.99C417.68 592.14 412.09 565.07 412.09 565.07C412.09 565.07 412.24 562.61 405.17 566.3C405.17 566.3 402.04 565.94 402.91 569.39C403.41 568.1 405.12 568.3 405.12 568.3Z" fill="black"/>
<path opacity="0.1" d="M398.19 676C399.19 675.63 399.46 668.78 399.4 665C399.35 668.8 399 673.69 398.19 674C397.38 674.31 396.99 676 397.3 677.63C397.46 676.77 397.78 676.14 398.19 676Z" fill="black"/>
<path opacity="0.1" d="M407.12 596.3C407.609 594.989 407.77 593.578 407.59 592.19C407.581 592.918 407.421 593.637 407.12 594.3C405.27 597.53 406.19 606.3 398.19 608L398.67 609.88C406.15 607.94 405.31 599.47 407.12 596.3Z" fill="black"/>
</g>
<path d="M451.56 754.41C447.78 761.29 409.41 754.41 409.41 754.41L409.51 753.72L410.27 748.39H450.7L451.47 753.71L451.56 754.41Z" fill="#34C39F"/>
<path opacity="0.1" d="M451.56 754.41C447.78 761.29 409.41 754.41 409.41 754.41L409.51 753.72C411.35 753.72 439.11 753.06 451.51 753.72L451.56 754.41Z" fill="black"/>
<path d="M409.41 754.41C409.41 754.41 402.53 756.13 391.86 785.03C381.19 813.93 377.41 851.27 377.41 851.27C377.41 851.27 371.41 861.43 397.02 862.11C397.02 862.11 394.96 868.82 409.41 867.79C423.86 866.76 421.78 866.77 421.78 866.77C421.78 866.77 431.07 860.92 435.2 861.95C439.33 862.98 441.91 863.33 446.38 867.11C450.85 870.89 465.14 869.35 465.31 866.43C465.425 864.996 465.425 863.554 465.31 862.12C465.31 862.12 487.16 863.5 483.03 847.67C478.9 831.84 475.46 805.86 475.46 805.86C475.46 805.86 464.28 755.11 451.54 754.42C438.8 753.73 409.41 754.41 409.41 754.41Z" fill="#34C39F"/>
<path opacity="0.1" d="M404.806 774.385L396.712 862.132L397.399 862.195L405.493 774.448L404.806 774.385Z" fill="black"/>
<path opacity="0.1" d="M421.767 774.319L421.412 866.708L422.102 866.711L422.457 774.321L421.767 774.319Z" fill="black"/>
<path opacity="0.1" d="M443.359 774.299L442.669 774.325L446.118 867.061L446.808 867.035L443.359 774.299Z" fill="black"/>
<path opacity="0.1" d="M464.98 862.12C463.78 809.27 454.78 773.09 454.67 772.77L455.34 772.6C455.43 772.96 464.48 809.21 465.67 862.15L464.98 862.12Z" fill="black"/>
<path opacity="0.1" d="M410.61 759.57C410.61 759.57 409.41 760.26 410.61 763.57V759.57Z" fill="black"/>
<path opacity="0.1" d="M414.06 759.57C414.06 759.57 410.79 761.63 414.06 765.08V759.57Z" fill="black"/>
<path opacity="0.1" d="M444.68 759.57C444.68 759.57 449.15 763.87 448.12 765.08L444.68 759.57Z" fill="black"/>
<path opacity="0.1" d="M448.28 758.54C448.28 758.54 448.98 763.7 451.56 765.08L448.28 758.54Z" fill="black"/>
<g opacity="0.5">
<path opacity="0.5" d="M630.9 750.29C630.9 750.29 647.78 743.57 655.08 751.77C662.38 759.97 650.08 769.95 650.08 769.95L644.92 780.25L632.78 778.92L629.92 764.68L630.9 750.29Z" fill="#34C39F"/>
<path opacity="0.1" d="M650.08 769.9L644.92 780.2L632.78 778.91L629.92 764.68L630.92 750.29L631.19 750.19C633.33 749.4 647.78 744.36 654.69 751.3C654.834 751.432 654.971 751.573 655.1 751.72C662.38 759.88 650.08 769.9 650.08 769.9Z" fill="black"/>
<path opacity="0.1" d="M650.08 769.9L644.92 780.2L632.78 778.91L629.92 764.68L630.92 750.29L631.19 750.19C633.28 761.64 638.86 766.47 639.8 767.19L639.94 767.29L643.37 767.01C650.04 763.33 653.56 754.58 654.69 751.27C654.834 751.402 654.971 751.543 655.1 751.69C662.38 759.88 650.08 769.9 650.08 769.9Z" fill="black"/>
<path opacity="0.5" d="M679.56 809.12C679.56 809.12 675.84 856.5 676.85 862.22C677.86 867.94 674.7 868.37 674.7 868.37C674.7 868.37 661.24 871.37 658.7 869.37C656.16 867.37 651.83 866.98 651.83 866.98C651.83 866.98 641.83 869.27 637.37 867.56C632.91 865.85 625.49 866.56 625.49 866.56C625.49 866.56 619.77 870 618.19 869.28C616.61 868.56 614.61 868.85 610.03 867.57C605.45 866.29 602.87 865.13 605.3 857.26C607.73 849.39 605.6 824.48 605.45 821.47C605.3 818.46 603.88 811.17 601.87 802.47C599.86 793.77 605.3 795.6 605.3 795.6C618.05 789.02 612.75 776.13 610.75 770.41C608.75 764.69 611.89 764.41 613.46 764.41C615.03 764.41 621.05 759.26 621.05 759.26L623.49 757.07L630.93 750.39C632.78 762.9 638.78 768.15 639.78 768.93L639.92 769.04L643.35 768.75C651.65 764.18 655.08 751.75 655.08 751.75C656.08 753.45 658.31 755.39 660.8 757.19C664.059 759.495 667.455 761.599 670.97 763.49C676.97 767.07 672.55 770.65 672.55 770.65C665.25 795.55 675.55 796.65 675.55 796.65C683.14 797.77 679.56 809.12 679.56 809.12Z" fill="#34C39F"/>
<path opacity="0.1" d="M623.31 764.46C623.31 764.46 621.16 765.61 621.16 766.89L623.31 764.46Z" fill="black"/>
<path opacity="0.1" d="M624.6 766.89C624.6 766.89 621.74 769.89 622.24 770.76L624.6 766.89Z" fill="black"/>
<path opacity="0.1" d="M624.6 770.77C624.6 770.77 622.45 773.06 623.31 774.35L624.6 770.77Z" fill="black"/>
<path opacity="0.1" d="M638.92 770.65L629.92 779.34C629.59 769.68 624.92 761.95 622.62 758.69L630.06 752.01C631.88 764.62 637.93 769.87 638.92 770.65Z" fill="black"/>
<path opacity="0.5" d="M639.78 768.93L630.78 777.63C630.46 767.96 625.78 760.24 623.49 756.97L630.93 750.29C632.78 762.9 638.78 768.15 639.78 768.93Z" fill="#34C39F"/>
<path opacity="0.1" d="M661.66 758.88C658.06 764.5 651.37 779.34 651.37 779.34L644.21 770.47C652.51 765.89 655.94 753.47 655.94 753.47C656.94 755.13 659.17 757.07 661.66 758.88Z" fill="black"/>
<path opacity="0.5" d="M660.78 757.16C657.19 762.79 650.49 777.63 650.49 777.63L643.35 768.77C651.65 764.2 655.08 751.77 655.08 751.77C656.08 753.42 658.31 755.36 660.78 757.16Z" fill="#34C39F"/>
<path opacity="0.1" d="M655.52 848.91C655.52 848.91 653.99 861.91 653.11 862.65L655.52 848.91Z" fill="black"/>
<path opacity="0.1" d="M668.11 851.2C668.11 851.2 669.83 860.5 669.11 862.65L668.11 851.2Z" fill="black"/>
<path opacity="0.1" d="M631.47 851.77C631.47 851.77 629.9 860.5 631.47 861.5V851.77Z" fill="black"/>
<path opacity="0.1" d="M622.18 850.48C622.18 850.48 620.88 860.79 621.18 862.65L622.18 850.48Z" fill="black"/>
<path opacity="0.1" d="M670.26 800.24C670.26 800.24 666.26 803.39 666.54 804.24L670.26 800.24Z" fill="black"/>
<path opacity="0.1" d="M673.12 802.25C673.12 802.25 665.46 808.69 669.29 807.97C673.12 807.25 673.12 802.25 673.12 802.25Z" fill="black"/>
</g>
<path d="M248.78 617.77L248.83 617.7L248.74 617.63L248.2 617.27L248.31 617.35C247.923 617.126 247.466 617.055 247.029 617.152C246.592 617.248 246.207 617.504 245.95 617.87L245.73 618.18L233.58 635.66L231.46 638.77C225.05 636.84 214.64 644.96 209.37 649.62C209.04 649.91 208.73 650.18 208.45 650.44C208.03 649.5 207.78 648.9 207.78 648.9C207.52 651.76 197.42 656.05 195.06 657.61C193.988 658.258 192.786 658.661 191.54 658.79C191.88 647.92 183.47 636.48 183.47 636.48L162.92 610.33C162.164 605.601 162.898 600.753 165.02 596.46C165.19 596.12 165.36 595.78 165.55 595.46H165.65C164.873 597.657 164.437 599.961 164.36 602.29C164.41 604.06 166.05 612.64 168.36 612.29C168.589 612.313 168.82 612.274 169.028 612.175C169.236 612.076 169.413 611.922 169.54 611.73C171.38 609.59 171.54 605.95 171.45 602.58C171.418 603.571 171.308 604.557 171.12 605.53C171.27 602.73 170.95 599.77 170.95 597.66C170.95 596.82 170.95 595.99 171.01 595.15H171.26C171.26 595.47 171.26 595.81 171.26 596.15C171.26 595.8 171.26 595.46 171.26 595.15H171.52C176.129 594.306 180.448 592.304 184.07 589.33C184.964 589.294 185.842 589.08 186.653 588.7C187.463 588.321 188.19 587.784 188.79 587.12C189.009 587.851 189.043 588.625 188.887 589.373C188.732 590.12 188.393 590.817 187.9 591.4C190.65 591.27 192.98 589.13 194.04 586.62C194.948 584.057 195.216 581.31 194.82 578.62C194.425 575.928 194.227 573.211 194.23 570.49C194.42 569.021 194.5 567.541 194.47 566.06C194.426 565.608 194.346 565.16 194.23 564.72H194.31C194.574 564.725 194.835 564.679 195.081 564.583C195.326 564.487 195.55 564.343 195.74 564.16C196.88 563.28 197.25 561.56 197.54 560.24C198.329 557.202 198.686 554.068 198.6 550.93C198.54 551.88 198.42 552.84 198.28 553.79C198.53 550.19 198.03 546.69 195.65 544.08C194.01 542.29 191.72 541.24 189.52 540.19C188.733 539.909 188.041 539.413 187.52 538.76C187.131 537.99 186.919 537.143 186.9 536.28C186.13 531.02 181.18 527.36 176.25 525.28C169.91 522.52 162.25 521.34 156.2 524.62C153.2 526.21 150.9 528.7 148.2 530.73C144.82 533.3 140.92 535.1 137.31 537.34C133.7 539.58 130.31 542.42 128.54 546.28C125.89 552.28 127.88 559.08 128.21 565.59C128.74 575.84 124.52 586.59 116.16 592.59C115.158 593.204 114.263 593.978 113.51 594.88C113.143 595.337 112.924 595.895 112.885 596.48C112.846 597.065 112.987 597.648 113.29 598.15C113.72 598.71 114.4 599.03 114.87 599.56C115.82 600.64 115.63 602.29 115.26 603.67C114.046 608.185 111.626 612.285 108.26 615.53C108.41 616.59 109.72 617.01 110.79 617.17C113.621 617.586 116.479 617.794 119.34 617.79H120.57C120.44 618.12 120.3 618.47 120.16 618.84C118.61 622.92 116.6 629.2 117.27 633.04C118.27 639.1 121.47 666.81 119.89 671.67C118.31 676.53 122.43 711.77 122.43 711.77C122.43 711.77 122.98 714.49 123.93 718.55C121.46 724.37 118.64 730.83 117.23 733.42C114.39 738.61 115.79 765.11 125.58 776.89C125.58 776.89 129.58 782.61 128.58 784.68C127.58 786.75 128.76 790.4 128.76 790.4L130.31 824.69C130.277 828.194 130.036 831.694 129.59 835.17C125.41 840.34 118.97 847.88 115.94 849.11C111.25 851.02 76.27 893.45 76.27 893.45C76.27 893.45 76.55 893.96 77.1 894.79L76.1 895.93L69.39 903.71L68.86 904.32C67.6 904.08 59.21 902.56 52.56 902.08H51.9V901.96C49.5694 901.693 47.2127 901.757 44.9 902.15C44.4625 902.231 44.0588 902.44 43.74 902.75C41.47 905.53 40.25 949.17 40.25 949.17C40.25 949.17 42.67 971.02 50.25 972.24C50.6364 972.374 51.0411 972.448 51.45 972.46H51.78C57.18 972.06 59.66 968.97 60.78 966.85C61.1113 966.217 61.3632 965.545 61.53 964.85C61.53 964.85 60.65 960.96 63.01 955.59C65.37 950.22 69.78 940.77 69.78 940.77C69.78 940.77 77.78 932.36 76.35 928.28C76.57 927.95 76.83 927.59 77.11 927.18C80.11 922.9 86.19 914.45 91.11 908.81C91.43 908.43 91.75 908.08 92.11 907.73C93.8998 908.485 95.7729 909.026 97.69 909.34C97.69 909.34 105.21 906.4 108 899.82C109.19 897.02 113.86 892.06 118.83 887.29L118.67 888.56L118.5 930.3C120.116 931.41 121.838 932.358 123.64 933.13V934.13C123.675 940.077 123.314 946.021 122.56 951.92L122.41 952.85C121.79 952.41 121.25 952.26 120.91 952.6C119.37 954.16 118.41 964.12 118.32 968.71C118.32 968.86 118.32 969.01 118.32 969.17C118.07 973.75 115.46 980.41 123.32 980.75C129.2 981 154.55 981.38 168.11 981.58C175.416 981.718 182.523 979.199 188.11 974.49C192.42 970.8 195.03 966.41 189.16 963.18C188.8 962.98 188.42 962.79 188 962.6L175 960.6L152.79 949.26C152.79 949.26 152.66 942.4 149.99 943.54C149.197 943.713 148.437 944.013 147.74 944.43C147.61 944.18 147.47 943.91 147.34 943.63C145.531 940.045 144.592 936.085 144.6 932.07C144.6 931.71 144.6 931.34 144.65 930.97C145.3 930.377 145.915 929.746 146.49 929.08C146.49 929.08 146.32 913.49 148.07 910.55C149.82 907.61 155.24 877.81 155.24 877.81C155.24 877.81 155.41 872.27 158.91 868.98C162.41 865.69 161.18 856.16 161.18 856.16C161.18 856.16 166.08 853.56 167.65 845.08C169.22 836.6 174.3 818.08 174.3 818.08C174.3 818.08 184.79 790.71 184.1 773.4C183.41 756.09 185.1 747.07 185.1 747.07L187.28 706.83V706.21C188.15 706.87 188.74 707.41 188.74 707.41C188.74 707.41 188.74 707.25 188.74 706.97C189.06 707.24 189.24 707.41 189.24 707.41C189.24 707.41 190.36 689.15 189.98 681.91C196.1 679.83 205.42 676.41 205.98 674.67C206.76 672.08 217.26 663.89 217.26 663.89C217.033 663.853 216.815 663.772 216.62 663.65C216.95 663.5 217.29 663.32 217.62 663.13C224.5 659.45 237.28 648.69 235.13 642.13L249.13 622.04C249.569 621.395 249.773 620.62 249.709 619.843C249.646 619.066 249.318 618.335 248.78 617.77Z" fill="url(#paint1_linear)"/>
<path d="M216.21 666.29C215.188 666.931 214.05 667.362 212.86 667.56C208.49 667.69 204.86 655.86 204.86 655.86C204.86 655.86 206.1 654.6 208.08 652.86C213.94 647.65 226.23 638.03 231.99 643.41C238.49 649.42 223.78 662.22 216.21 666.29Z" fill="#ECB4B6"/>
<path d="M149.78 948.42L133.65 965.83C133.65 965.83 118.73 966 121.65 957.77C122.233 955.986 122.648 954.151 122.89 952.29C123.625 946.446 123.976 940.56 123.94 934.67C123.94 930.81 123.88 928.1 123.88 928.1C123.88 928.1 147.37 917.81 144.97 928.53C144.671 929.87 144.511 931.237 144.49 932.61C144.481 936.583 145.398 940.504 147.17 944.06C147.895 945.595 148.769 947.056 149.78 948.42Z" fill="#ECB4B6"/>
<path opacity="0.1" d="M149.78 948.42L133.65 965.83C133.65 965.83 118.73 966 121.65 957.77C122.233 955.986 122.648 954.151 122.89 952.29C125.02 953.94 128.08 958.8 128.08 958.8C128.08 958.8 138.37 961.8 141.2 952.8C142.78 947.8 145.28 945.27 147.2 944.06C147.916 945.594 148.78 947.054 149.78 948.42Z" fill="black"/>
<path d="M187.2 974.64C181.731 979.299 174.743 981.79 167.56 981.64C154.26 981.45 129.41 981.06 123.64 980.82C115.92 980.48 118.48 973.89 118.73 969.35C118.73 969.19 118.73 969.05 118.73 968.9C118.82 964.35 119.73 954.49 121.27 952.95C122.81 951.41 128.08 959.81 128.08 959.81C128.08 959.81 138.37 962.81 141.2 953.81C144.03 944.81 149.78 943.94 149.78 943.94C152.39 942.81 152.52 949.6 152.52 949.6L174.3 960.83L187.08 962.83C187.49 963.02 187.86 963.21 188.21 963.4C193.99 966.64 191.43 970.98 187.2 974.64Z" fill="#C17174"/>
<path opacity="0.25" d="M146.96 957.33C147.479 957.33 147.9 956.909 147.9 956.39C147.9 955.871 147.479 955.45 146.96 955.45C146.441 955.45 146.02 955.871 146.02 956.39C146.02 956.909 146.441 957.33 146.96 957.33Z" fill="white"/>
<path opacity="0.25" d="M155.8 961.71C156.319 961.71 156.74 961.289 156.74 960.77C156.74 960.251 156.319 959.83 155.8 959.83C155.281 959.83 154.86 960.251 154.86 960.77C154.86 961.289 155.281 961.71 155.8 961.71Z" fill="white"/>
<path opacity="0.25" d="M160.34 963.74C160.859 963.74 161.28 963.319 161.28 962.8C161.28 962.281 160.859 961.86 160.34 961.86C159.821 961.86 159.4 962.281 159.4 962.8C159.4 963.319 159.821 963.74 160.34 963.74Z" fill="white"/>
<path opacity="0.25" d="M169.77 967.36C170.289 967.36 170.71 966.939 170.71 966.42C170.71 965.901 170.289 965.48 169.77 965.48C169.251 965.48 168.83 965.901 168.83 966.42C168.83 966.939 169.251 967.36 169.77 967.36Z" fill="white"/>
<path opacity="0.25" d="M164.97 965.82C165.489 965.82 165.91 965.399 165.91 964.88C165.91 964.361 165.489 963.94 164.97 963.94C164.451 963.94 164.03 964.361 164.03 964.88C164.03 965.399 164.451 965.82 164.97 965.82Z" fill="white"/>
<path d="M187.2 974.64C181.731 979.299 174.743 981.79 167.56 981.64C154.26 981.45 129.41 981.06 123.64 980.82C115.92 980.48 118.48 973.89 118.73 969.35L167.2 972.35C167.2 972.35 187.05 969.35 188.2 963.43C193.99 966.64 191.43 970.98 187.2 974.64Z" fill="#C17174"/>
<path opacity="0.25" d="M187.2 974.64C181.731 979.299 174.743 981.79 167.56 981.64C154.26 981.45 129.41 981.06 123.64 980.82C115.92 980.48 118.48 973.89 118.73 969.35L167.2 972.35C167.2 972.35 187.05 969.35 188.2 963.43C193.99 966.64 191.43 970.98 187.2 974.64Z" fill="white"/>
<path d="M96.97 904.69C95.1865 906.145 93.5579 907.781 92.11 909.57C87.3 915.15 81.35 923.57 78.4 927.75C77.26 929.39 76.57 930.42 76.57 930.42L70.13 929.47C70.13 929.47 63.19 918.84 63.28 918.59C63.37 918.34 68.78 906.92 68.78 906.92L70.87 904.47L77.46 896.77L80.46 893.29C80.46 893.29 102.78 900.49 96.97 904.69Z" fill="#ECB4B6"/>
<path opacity="0.1" d="M78.4 927.77C77.26 929.41 76.57 930.44 76.57 930.44L70.13 929.49C70.13 929.49 63.19 918.86 63.28 918.61C63.37 918.36 68.78 906.92 68.78 906.92L70.87 904.47L71.55 904.6H73.19C67.44 910.6 73.61 923.8 73.61 923.8C73.61 923.8 76.27 924.05 78.4 927.77Z" fill="black"/>
<path d="M71.21 941.21C71.21 941.21 66.92 950.47 64.6 955.79C62.28 961.11 63.14 964.96 63.14 964.96C62.9767 965.653 62.7316 966.325 62.41 966.96C61.5877 968.595 60.3365 969.977 58.79 970.956C57.2435 971.935 55.46 972.476 53.63 972.52H53.21C45.39 972.32 42.91 949.62 42.91 949.62C42.91 949.62 44.11 906.41 46.34 903.62C46.6467 903.309 47.041 903.1 47.47 903.02C49.7456 902.625 52.0662 902.561 54.36 902.83C61.43 903.34 70.52 905.08 70.52 905.08H72.15C66.4 911.08 72.57 924.29 72.57 924.29C72.57 924.29 75.32 924.54 77.46 928.4C79.6 932.26 71.21 941.21 71.21 941.21Z" fill="#C17174"/>
<path opacity="0.25" d="M61.77 929.29C62.2891 929.29 62.71 928.869 62.71 928.35C62.71 927.831 62.2891 927.41 61.77 927.41C61.2509 927.41 60.83 927.831 60.83 928.35C60.83 928.869 61.2509 929.29 61.77 929.29Z" fill="white"/>
<path opacity="0.25" d="M61.3 936.78C61.8191 936.78 62.24 936.359 62.24 935.84C62.24 935.321 61.8191 934.9 61.3 934.9C60.7809 934.9 60.36 935.321 60.36 935.84C60.36 936.359 60.7809 936.78 61.3 936.78Z" fill="white"/>
<path d="M61.78 966.77C60.9577 968.405 59.7065 969.787 58.16 970.766C56.6135 971.745 54.8299 972.286 53 972.33H52.59C44.77 972.13 42.28 949.43 42.28 949.43C42.28 949.43 43.48 906.22 45.71 903.43C46.0167 903.119 46.411 902.91 46.84 902.83C49.1156 902.435 51.4361 902.371 53.73 902.64C53.6 910.41 53.23 934.96 53.73 937.4C54.23 939.84 58.66 960.26 61.78 966.77Z" fill="#C17174"/>
<path opacity="0.25" d="M61.78 966.77C60.9577 968.405 59.7065 969.787 58.16 970.766C56.6135 971.745 54.8299 972.286 53 972.33H52.59C44.77 972.13 42.28 949.43 42.28 949.43C42.28 949.43 43.48 906.22 45.71 903.43C46.0167 903.119 46.411 902.91 46.84 902.83C49.1156 902.435 51.4361 902.371 53.73 902.64C53.6 910.41 53.23 934.96 53.73 937.4C54.23 939.84 58.66 960.26 61.78 966.77Z" fill="white"/>
<path d="M52.58 972.35C44.76 972.15 42.27 949.45 42.27 949.45C42.27 949.45 43.47 906.24 45.7 903.45C46.0067 903.139 46.401 902.93 46.83 902.85C48.47 905.29 49.91 910.69 48.61 922.57C46.17 945.08 49.11 946.5 49.11 946.5C49.11 946.5 52.78 965.63 52.58 972.35Z" fill="#C17174"/>
<path opacity="0.1" d="M52.58 972.35C44.76 972.15 42.27 949.45 42.27 949.45C42.27 949.45 43.47 906.24 45.7 903.45C46.0067 903.139 46.401 902.93 46.83 902.85C48.47 905.29 49.91 910.69 48.61 922.57C46.17 945.08 49.11 946.5 49.11 946.5C49.11 946.5 52.78 965.63 52.58 972.35Z" fill="black"/>
<path opacity="0.1" d="M216.21 666.29C215.188 666.931 214.05 667.362 212.86 667.56C208.49 667.69 204.86 655.86 204.86 655.86C204.86 655.86 206.1 654.6 208.08 652.86C209.51 656.06 213.45 664.69 216.21 666.29Z" fill="black"/>
<path d="M188.17 662.03C188.17 662.03 191.77 662.29 194.08 660.75C196.39 659.21 206.3 654.96 206.56 652.13C206.56 652.13 212.47 666.53 215.82 667.05C215.82 667.05 205.53 675.15 204.76 677.72C203.99 680.29 183.92 686.6 183.92 686.6L188.17 662.03Z" fill="#FF748E"/>
<path opacity="0.1" d="M188.17 662.03C188.17 662.03 191.77 662.29 194.08 660.75C196.39 659.21 206.3 654.96 206.56 652.13C206.56 652.13 212.47 666.53 215.82 667.05C215.82 667.05 205.53 675.15 204.76 677.72C203.99 680.29 183.92 686.6 183.92 686.6L188.17 662.03Z" fill="black"/>
<path opacity="0.1" d="M96.97 904.69C95.1865 906.145 93.5579 907.781 92.11 909.57C84.35 906.32 79.35 899.68 77.45 896.77L80.45 893.29C80.45 893.29 102.78 900.49 96.97 904.69Z" fill="black"/>
<path d="M133.67 831.77C133.67 831.77 121.09 848.58 116.49 850.47C111.89 852.36 77.6 894.37 77.6 894.37C77.6 894.37 84.97 907.92 98.52 910.14C98.52 910.14 105.89 907.23 108.64 900.71C111.39 894.19 132.99 875.77 132.99 875.77L133.67 831.77Z" fill="#5E5A6B"/>
<path opacity="0.1" d="M133.67 831.77C133.67 831.77 121.09 848.58 116.49 850.47C111.89 852.36 77.6 894.37 77.6 894.37C77.6 894.37 84.97 907.92 98.52 910.14C98.52 910.14 105.89 907.23 108.64 900.71C111.39 894.19 132.99 875.77 132.99 875.77L133.67 831.77Z" fill="black"/>
<path opacity="0.1" d="M95.56 888.02C99.3662 888.42 103.204 888.42 107.01 888.02C113.78 887.37 108.68 891.49 95.56 888.02Z" fill="black"/>
<path opacity="0.1" d="M92.47 892.39C92.47 892.39 101.47 897.53 104.95 894.96C108.43 892.39 101.6 897.44 92.47 892.39Z" fill="black"/>
<path opacity="0.1" d="M144.99 928.53C144.691 929.87 144.531 931.237 144.51 932.61C137.56 938.92 129.19 936.97 123.96 934.67C123.96 930.81 123.9 928.1 123.9 928.1C123.9 928.1 147.39 917.77 144.99 928.53Z" fill="black"/>
<path d="M186.66 704.82L186.41 709.56L184.27 749.41C184.27 749.41 182.55 758.33 183.27 775.47C183.99 792.61 173.63 819.77 173.63 819.77C173.63 819.77 168.63 838.12 167.11 846.52C165.59 854.92 160.77 857.52 160.77 857.52C160.77 857.52 161.97 866.95 158.54 870.21C155.11 873.47 154.94 878.95 154.94 878.95C154.94 878.95 149.62 908.45 147.94 911.37C146.26 914.29 146.39 929.72 146.39 929.72C135.25 942.92 118.96 930.92 118.96 930.92L119.13 889.59C119.13 889.59 123.76 851.52 127.19 846.2C130.62 840.88 130.62 826.31 130.62 826.31L129.09 792.31C129.09 792.31 127.87 788.71 128.92 786.65C129.97 784.59 125.99 778.94 125.99 778.94C116.38 767.27 114.99 741.03 117.8 735.94C120.61 730.85 128.92 710.22 128.92 710.22L140.39 703.53L161.12 704.14L186.66 704.82Z" fill="#5E5A6B"/>
<path opacity="0.1" d="M137.88 906.92C137.88 906.92 140.59 916.31 142.77 917.34C144.95 918.37 137.88 906.92 137.88 906.92Z" fill="black"/>
<path opacity="0.1" d="M141.61 875.67C141.61 875.67 148.61 881.21 151.61 881.2C154.61 881.19 141.61 875.67 141.61 875.67Z" fill="black"/>
<path d="M183.92 643.51V654.83L176.45 651.61L169 648.4L152.78 632.45C152.78 632.45 139.95 624.12 133.09 616.53C129.17 612.2 127.2 608.11 130.65 605.95C132.322 604.855 133.833 603.532 135.14 602.02C138.588 597.956 141.585 593.53 144.08 588.82C144.19 588.63 144.3 588.44 144.4 588.25C147.74 582.12 149.95 576.89 149.95 576.89C149.95 576.89 159.35 579.89 165.39 584.17C165.88 584.51 166.34 584.86 166.78 585.22C170.15 587.98 171.83 591.22 168.72 594.38C167.921 595.206 167.183 596.088 166.51 597.02C166.008 597.712 165.547 598.433 165.13 599.18C164.95 599.52 164.77 599.85 164.61 600.18C162.529 604.436 161.81 609.23 162.55 613.91L183.92 643.51Z" fill="#ECB4B6"/>
<path d="M182.55 562.77C182.94 563.45 183.48 564.03 183.84 564.72C184.447 566.243 184.643 567.898 184.41 569.52C184.215 572.084 184.383 574.663 184.91 577.18C185.44 579.44 186.43 581.62 186.51 583.94C186.62 587.21 184.92 590.24 183.28 593.07C184.171 593.043 185.047 592.835 185.855 592.458C186.663 592.082 187.386 591.545 187.98 590.88C188.197 591.601 188.232 592.365 188.082 593.103C187.932 593.841 187.602 594.531 187.12 595.11C189.81 594.98 192.12 592.86 193.12 590.38C194.033 587.818 194.297 585.069 193.89 582.38C193.498 579.715 193.304 577.024 193.31 574.33C193.496 572.874 193.573 571.407 193.54 569.94C193.29 567.03 191.54 564.5 189.78 562.14L186.3 557.36C186.058 556.969 185.712 556.654 185.3 556.45C182.01 555.05 181.63 561.11 182.55 562.77Z" fill="#464353"/>
<path opacity="0.1" d="M168.78 594.38C167.981 595.206 167.243 596.088 166.57 597.02C166.068 597.712 165.607 598.433 165.19 599.18C165.01 599.52 164.83 599.85 164.67 600.18C160.706 599.958 156.839 598.864 153.346 596.977C149.852 595.089 146.818 592.454 144.46 589.26C144.35 589.11 144.24 588.96 144.14 588.8C144.25 588.61 144.36 588.42 144.46 588.23C147.8 582.1 150.01 576.87 150.01 576.87C150.01 576.87 159.41 579.87 165.45 584.15C165.94 584.49 166.4 584.84 166.84 585.2C170.17 587.98 171.85 591.18 168.78 594.38Z" fill="black"/>
<path d="M193.16 572.21C193.162 578.524 190.95 584.638 186.911 589.491C182.872 594.343 177.259 597.627 171.05 598.77C169.433 599.064 167.793 599.211 166.15 599.21H166.03C165.74 599.21 165.44 599.21 165.15 599.21C159.857 599.014 154.738 597.265 150.432 594.182C146.125 591.098 142.821 586.816 140.929 581.868C139.038 576.921 138.644 571.526 139.796 566.356C140.948 561.186 143.596 556.469 147.408 552.793C151.221 549.116 156.031 546.642 161.24 545.679C166.448 544.716 171.825 545.305 176.7 547.375C181.576 549.445 185.735 552.903 188.66 557.319C191.585 561.735 193.146 566.913 193.15 572.21H193.16Z" fill="#ECB4B6"/>
<path opacity="0.1" d="M169.69 638.97C169.69 638.97 183.29 646.64 179.81 640.17L162.06 613.93L182.21 639.82C182.21 639.82 195.07 657.49 188.04 669.66C188.04 669.66 187.04 679.78 188.21 682.18C189.38 684.58 187.87 710.18 187.87 710.18C187.87 710.18 183.06 705.72 180.49 706.57C177.92 707.42 159.78 708.94 159.78 708.94L169.69 638.97Z" fill="black"/>
<path opacity="0.1" d="M186.66 704.82L186.41 709.56C184.78 708.38 182.51 707.06 181 707.56C178.43 708.42 160.26 709.97 160.26 709.97L161.09 704.06L186.66 704.82Z" fill="black"/>
<path d="M170.2 638.97C170.2 638.97 183.81 646.64 180.32 640.17L162.57 613.93L182.72 639.82C182.72 639.82 195.58 657.49 188.55 669.66C188.55 669.66 187.55 679.78 188.72 682.18C189.89 684.58 188.38 710.18 188.38 710.18C188.38 710.18 183.58 705.72 181.01 706.57C178.44 707.42 160.26 708.98 160.26 708.98L170.2 638.97Z" fill="#464353"/>
<path opacity="0.1" d="M177.47 652.12C176.68 660.37 173.29 670.18 173.29 670.18C173.29 670.18 170.89 694.53 167.78 701.77C164.67 709.01 166.06 718.92 164.35 737.27C163.73 743.88 161.6 748.42 158.73 751.48C154.01 756.48 147.27 757.57 141.95 757.26L140.69 757.16C132.11 756.31 123.88 714.98 123.88 714.98C123.88 714.98 119.94 679.82 121.48 674.98C123.02 670.14 119.96 642.77 118.93 636.77C118.27 632.96 120.24 626.77 121.76 622.71C122.65 620.37 123.38 618.71 123.38 618.71C123.38 618.71 126.3 609.45 131.1 604.65C131.762 603.971 132.553 603.431 133.428 603.063C134.302 602.696 135.242 602.508 136.19 602.51C138.447 602.602 140.638 603.292 142.54 604.51C142.617 604.554 142.691 604.605 142.76 604.66C142.76 604.66 173.98 636.56 176.89 643.93C177.7 646 177.78 648.94 177.47 652.12Z" fill="black"/>
<path d="M176.45 651.61C175.65 659.85 172.26 669.66 172.26 669.66C172.26 669.66 169.86 694.02 166.77 701.22C163.68 708.42 165.06 718.37 163.34 736.72C162.72 743.32 160.59 747.86 157.72 750.93C153 755.93 146.26 757.01 140.94 756.71L139.68 756.61C131.1 755.75 122.87 714.42 122.87 714.42C122.87 714.42 118.93 679.27 120.47 674.47C122.01 669.67 118.93 642.23 117.9 636.22C117.24 632.42 119.21 626.22 120.73 622.16C121.62 619.82 122.35 618.21 122.35 618.21C122.35 618.21 125.27 608.95 130.07 604.15C130.73 603.469 131.521 602.928 132.396 602.562C133.271 602.196 134.212 602.012 135.16 602.02C137.418 602.101 139.613 602.792 141.51 604.02L141.73 604.16C141.73 604.16 172.95 636.06 175.86 643.43C176.67 645.48 176.78 648.43 176.45 651.61Z" fill="#FF748E"/>
<path opacity="0.1" d="M141.48 777.15C141.48 777.15 134.4 783.45 131.96 783.15C129.52 782.85 141.48 777.15 141.48 777.15Z" fill="black"/>
<path opacity="0.1" d="M143.36 783.2C143.36 783.2 135.9 786.66 133.67 787.2C131.44 787.74 140.48 782.31 143.36 783.2Z" fill="black"/>
<path opacity="0.1" d="M172.22 688.53C172.22 688.53 183.28 688.66 184.95 692.13C186.62 695.6 175.78 687.11 172.22 688.53Z" fill="black"/>
<path opacity="0.1" d="M170.67 694.57C170.67 694.57 179.16 696.37 181.73 698.43C184.3 700.49 170.67 694.57 170.67 694.57Z" fill="black"/>
<path opacity="0.1" d="M156.4 673.61C156.4 673.61 155.4 708.46 151.58 712.97C147.76 717.48 156.4 673.61 156.4 673.61Z" fill="black"/>
<path opacity="0.1" d="M146.88 772.13C146.88 772.13 139.78 802.87 154.02 804.77C168.26 806.67 163.86 769.77 163.86 769.77L146.88 772.13Z" fill="black"/>
<path d="M146.36 771.62C146.36 771.62 139.3 802.36 153.51 804.28C167.72 806.2 163.34 769.28 163.34 769.28L146.36 771.62Z" fill="#ECB4B6"/>
<path opacity="0.1" d="M192.99 569.23C192.594 568.642 192.259 568.016 191.99 567.36C190.1 563.42 185.24 565.36 181.68 567.23L179.78 569.68C178.913 570.697 178.183 571.823 177.61 573.03C177.245 574.01 176.941 575.012 176.7 576.03C176.21 577.77 175.49 579.43 174.84 581.13C172.684 586.782 171.406 592.731 171.05 598.77C169.433 599.064 167.793 599.211 166.15 599.21H166.03V599.09C166.21 598.41 166.36 597.72 166.5 597.03C167.244 593.139 167.336 589.151 166.77 585.23C166.77 585.14 166.77 585.06 166.77 584.97C166.64 584.1 166.47 583.22 166.4 582.35C166.07 582.95 165.75 583.56 165.4 584.18C163.25 588.18 160.99 592.18 156.93 593.93C155.282 594.577 153.546 594.968 151.78 595.09C149.6 595.206 147.44 595.565 145.34 596.16C144.624 596.356 143.976 596.747 143.47 597.29C142.905 598.126 142.58 599.102 142.53 600.11C142.313 601.44 141.979 602.749 141.53 604.02C139.694 608.765 136.824 613.042 133.13 616.54L132.2 617.44C130.616 619.074 128.727 620.382 126.64 621.29C124.744 621.928 122.75 622.226 120.75 622.17C121.64 619.83 122.37 618.22 122.37 618.22C122.37 618.22 125.29 608.96 130.09 604.16C130.75 603.479 131.541 602.938 132.416 602.572C133.291 602.206 134.232 602.022 135.18 602.03C138.763 597.794 141.868 593.176 144.44 588.26C141.982 584.925 140.325 581.07 139.596 576.992C138.868 572.914 139.087 568.723 140.237 564.744C141.387 560.764 143.438 557.103 146.23 554.043C149.022 550.983 152.481 548.606 156.339 547.097C160.197 545.588 164.35 544.987 168.477 545.34C172.605 545.693 176.595 546.991 180.141 549.134C183.686 551.277 186.691 554.206 188.922 557.696C191.154 561.186 192.553 565.143 193.01 569.26L192.99 569.23Z" fill="black"/>
<path d="M194.71 548.16C193.11 546.38 190.86 545.34 188.71 544.31C187.945 544.02 187.271 543.529 186.76 542.89C186.387 542.126 186.182 541.29 186.16 540.44C185.41 535.22 180.55 531.61 175.72 529.49C169.5 526.76 162.03 525.59 156.06 528.83C153.16 530.41 150.87 532.88 148.25 534.89C144.93 537.43 141.11 539.21 137.57 541.43C134.03 543.65 130.65 546.43 128.97 550.29C126.37 556.19 128.32 562.96 128.65 569.4C129.16 579.56 125.03 590.17 116.83 596.18C115.842 596.785 114.963 597.553 114.23 598.45C113.872 598.904 113.659 599.455 113.622 600.032C113.584 600.609 113.723 601.184 114.02 601.68C114.43 602.24 115.11 602.56 115.56 603.08C116.5 604.15 116.31 605.78 115.94 607.16C114.755 611.618 112.385 615.672 109.08 618.89C109.22 619.95 110.5 620.36 111.55 620.52C114.327 620.933 117.132 621.137 119.94 621.13C122.128 621.309 124.329 620.975 126.365 620.154C128.402 619.333 130.218 618.047 131.67 616.4C136.67 611.7 140.9 605.83 142.03 599.07C142.089 598.063 142.413 597.091 142.97 596.25C143.484 595.716 144.128 595.326 144.84 595.12C148.57 593.84 152.84 594.47 156.43 592.89C161.11 590.89 163.43 585.89 165.88 581.31C165.96 582.18 166.12 583.06 166.26 583.94C166.974 588.646 166.736 593.448 165.56 598.06C164.89 600.67 163.92 603.27 163.99 605.96C164.04 607.96 166.07 618.41 168.74 615.28C171.41 612.15 170.43 605.23 170.43 601.35C170.433 594.086 171.765 586.884 174.36 580.1C175 578.41 175.73 576.74 176.22 575C176.462 573.984 176.763 572.982 177.12 572C177.701 570.795 178.433 569.669 179.3 568.65L181.21 566.2C184.77 564.31 189.63 562.39 191.52 566.33C192.24 567.84 192.63 569.51 194.52 568.04C195.63 567.17 195.99 565.46 196.28 564.16C197.47 558.71 198.45 552.3 194.71 548.16Z" fill="#464353"/>
<path opacity="0.1" d="M158.52 642.57C157.79 624.1 131.94 620.28 125.91 637.75C125.861 637.867 125.821 637.987 125.79 638.11C121.84 649.94 123.56 679.9 123.56 679.9C123.56 679.9 124.07 700.02 125.96 706.71C127.85 713.4 133.16 732.6 133.16 735.71C133.16 738.82 138.09 750.63 140.16 751.49C142.23 752.35 143.28 759.03 143.79 760.23C144.3 761.43 145.79 777.04 145.79 777.04C145.79 777.04 165.17 775.84 165.51 772.75C165.85 769.66 161.22 754.57 161.22 754.57C161.22 754.57 157.81 748.4 157.37 743.43C156.93 738.46 154.25 736.2 154.78 732.77C155.31 729.34 153.23 727.63 153.23 725.4C153.23 723.17 151.69 717.17 151.69 717.17C151.69 717.17 148.43 714.59 148.95 711.51C149.47 708.43 144.32 702.25 145.69 700.02C147.06 697.79 147.4 692.3 147.4 692.3C147.4 692.3 149.12 667.61 150.32 660.92C151.52 654.23 158.55 643.43 158.55 643.43C158.55 643.43 158.54 643.12 158.52 642.57Z" fill="black"/>
<path opacity="0.1" d="M157.72 750.93C153 755.93 146.26 757.01 140.94 756.71C140.32 754.37 139.42 751.49 138.11 750.95C136.03 750.09 131.11 738.26 131.11 735.18C131.11 732.1 125.8 712.88 123.91 706.18C122.02 699.48 121.51 679.38 121.51 679.38C121.51 679.38 119.79 649.38 123.74 637.58C123.74 637.47 123.81 637.35 123.86 637.23C129.86 619.75 155.74 623.58 156.47 642.05C156.47 642.6 156.47 642.9 156.47 642.9C156.47 642.9 149.47 653.7 148.24 660.39C147.01 667.08 145.34 691.77 145.34 691.77C145.34 691.77 144.99 697.26 143.62 699.49C142.25 701.72 147.39 707.9 146.88 710.98C146.37 714.06 149.62 716.64 149.62 716.64C149.62 716.64 151.16 722.64 151.16 724.88C151.16 727.12 153.22 728.82 152.71 732.25C152.2 735.68 154.94 737.91 155.38 742.88C155.747 745.666 156.536 748.381 157.72 750.93Z" fill="black"/>
<path d="M157.49 642.06C156.76 623.59 130.91 619.77 124.88 637.24L124.76 637.59C120.81 649.43 122.53 679.39 122.53 679.39C122.53 679.39 123.04 699.5 124.93 706.19C126.82 712.88 132.13 732.09 132.13 735.19C132.13 738.29 137.06 750.11 139.13 750.97C141.2 751.83 142.25 758.52 142.76 759.72C143.27 760.92 144.76 776.52 144.76 776.52C144.76 776.52 164.14 775.32 164.48 772.24C164.82 769.16 160.2 754.06 160.2 754.06C160.2 754.06 156.78 747.88 156.34 742.91C155.9 737.94 153.16 735.71 153.68 732.28C154.2 728.85 152.13 727.13 152.13 724.9C152.13 722.67 150.59 716.67 150.59 716.67C150.59 716.67 147.33 714.1 147.85 711.01C148.37 707.92 143.22 701.75 144.59 699.52C145.96 697.29 146.3 691.81 146.3 691.81C146.3 691.81 148.02 667.11 149.22 660.42C150.42 653.73 157.45 642.93 157.45 642.93C157.45 642.93 157.51 642.61 157.49 642.06Z" fill="#FF748E"/>
<path opacity="0.1" d="M125.66 689.56C126.17 689.04 135.95 678.24 139.03 682.1C142.11 685.96 125.66 689.56 125.66 689.56Z" fill="black"/>
<path opacity="0.1" d="M126.56 697.92C126.94 697.53 136.33 697.15 138.65 691.92C140.97 686.69 126.56 697.92 126.56 697.92Z" fill="black"/>
<g opacity="0.1">
<path opacity="0.1" d="M115.86 603.08C116.091 603.352 116.264 603.669 116.37 604.01C116.559 603.427 116.611 602.807 116.523 602.201C116.434 601.594 116.208 601.015 115.86 600.51C115.4 599.98 114.73 599.67 114.31 599.11C114.31 599.11 114.26 599.02 114.23 598.97C113.998 599.387 113.883 599.859 113.897 600.336C113.911 600.813 114.054 601.277 114.31 601.68C114.78 602.24 115.4 602.56 115.86 603.08Z" fill="black"/>
<path opacity="0.1" d="M128.95 569.77C128.95 568.77 128.95 567.77 128.95 566.85C128.77 563.35 128.12 559.76 127.95 556.25C127.74 560.55 128.7 565.06 128.95 569.42C128.95 569.52 128.94 569.63 128.95 569.77Z" fill="black"/>
<path opacity="0.1" d="M169.03 612.71C166.65 615.5 164.78 607.47 164.37 604.3C164.305 604.851 164.275 605.405 164.28 605.96C164.34 607.96 166.36 618.41 169.03 615.28C170.84 613.16 171.03 609.55 170.91 606.22C170.78 608.77 170.38 611.13 169.03 612.71Z" fill="black"/>
<path opacity="0.1" d="M166.55 583.94C166.753 585.285 166.877 586.641 166.92 588C167.007 585.78 166.883 583.557 166.55 581.36C166.42 580.49 166.25 579.61 166.17 578.73C163.7 583.35 161.41 588.29 156.73 590.32C153.1 591.89 148.87 591.27 145.14 592.55C144.424 592.746 143.776 593.137 143.27 593.68C142.707 594.518 142.383 595.492 142.33 596.5C141.19 603.26 136.95 609.13 131.96 613.83C130.508 615.477 128.692 616.763 126.655 617.584C124.619 618.405 122.418 618.739 120.23 618.56C117.426 618.562 114.625 618.358 111.85 617.95C111.42 617.884 110.998 617.773 110.59 617.62C110.2 618.06 109.79 618.48 109.37 618.89C109.51 619.95 110.8 620.36 111.85 620.52C114.624 620.933 117.425 621.137 120.23 621.13C122.418 621.309 124.619 620.975 126.655 620.154C128.692 619.333 130.508 618.047 131.96 616.4C136.96 611.7 141.19 605.83 142.33 599.07C142.384 598.063 142.709 597.088 143.27 596.25C143.78 595.712 144.426 595.322 145.14 595.12C148.87 593.84 153.14 594.47 156.73 592.89C161.41 590.89 163.73 585.89 166.17 581.31C166.25 582.18 166.42 583.06 166.55 583.94Z" fill="black"/>
<path opacity="0.1" d="M196.57 561.59C196.28 562.89 195.91 564.59 194.8 565.47C192.92 566.93 192.54 565.27 191.8 563.76C189.91 559.82 185.05 561.76 181.49 563.63L179.58 566.08C178.713 567.097 177.983 568.223 177.41 569.43C177.044 570.409 176.743 571.411 176.51 572.43C176.01 574.17 175.29 575.83 174.64 577.52C172.055 584.307 170.727 591.507 170.72 598.77C170.72 599.1 170.72 599.46 170.72 599.83C170.898 593.08 172.22 586.408 174.63 580.1C175.28 578.41 176 576.74 176.5 575C176.733 573.981 177.034 572.979 177.4 572C177.973 570.793 178.703 569.667 179.57 568.65L181.48 566.2C185.04 564.31 189.9 562.39 191.79 566.33C192.52 567.84 192.9 569.51 194.79 568.04C195.9 567.17 196.27 565.46 196.56 564.16C197.314 561.147 197.65 558.045 197.56 554.94C197.4 557.179 197.069 559.402 196.57 561.59Z" fill="black"/>
</g>
<path d="M219.96 658.95L220.49 659.31C220.253 659.152 220.05 658.949 219.893 658.711C219.737 658.473 219.63 658.207 219.578 657.927C219.527 657.647 219.533 657.359 219.595 657.082C219.657 656.804 219.774 656.541 219.94 656.31L243.78 621.77C243.937 621.54 244.139 621.343 244.373 621.191C244.606 621.039 244.868 620.935 245.142 620.885C245.417 620.834 245.698 620.839 245.971 620.898C246.243 620.958 246.501 621.07 246.73 621.23L246.2 620.86C246.943 621.374 247.453 622.161 247.616 623.05C247.779 623.939 247.583 624.856 247.07 625.6L224.7 658.07C224.186 658.813 223.399 659.322 222.511 659.487C221.623 659.652 220.706 659.459 219.96 658.95Z" fill="#464353"/>
<path d="M246.456 620.991L246.859 621.269L220.618 659.365L220.214 659.087C219.834 658.825 219.574 658.423 219.49 657.97C219.406 657.516 219.506 657.047 219.768 656.667L244.03 621.445C244.292 621.065 244.694 620.804 245.148 620.721C245.602 620.637 246.07 620.737 246.45 620.999L246.456 620.991Z" fill="#9F9EFF"/>
<path d="M243.508 626.197L243.434 626.146C243.356 626.092 243.251 626.112 243.197 626.189L241.252 629.014C241.198 629.091 241.218 629.197 241.295 629.25L241.369 629.301C241.447 629.355 241.552 629.335 241.606 629.258L243.551 626.433C243.605 626.356 243.585 626.25 243.508 626.197Z" fill="#464353"/>
<path d="M749.4 503C749.408 506.417 748.402 509.76 746.509 512.606C744.616 515.451 741.922 517.671 738.767 518.984C735.612 520.297 732.138 520.645 728.785 519.983C725.433 519.321 722.352 517.68 719.932 515.266C717.513 512.852 715.864 509.775 715.195 506.424C714.525 503.073 714.865 499.598 716.171 496.44C717.477 493.282 719.69 490.583 722.531 488.683C725.372 486.784 728.713 485.77 732.13 485.77C736.703 485.77 741.09 487.584 744.328 490.814C747.565 494.044 749.389 498.427 749.4 503ZM730.13 512.14L742.95 499.33C743.156 499.121 743.271 498.839 743.271 498.545C743.271 498.251 743.156 497.969 742.95 497.76L741.37 496.18C741.268 496.076 741.145 495.993 741.011 495.936C740.876 495.88 740.731 495.851 740.585 495.851C740.439 495.851 740.294 495.88 740.159 495.936C740.025 495.993 739.902 496.076 739.8 496.18L729.35 506.63L724.47 501.77C724.259 501.564 723.975 501.448 723.68 501.448C723.385 501.448 723.101 501.564 722.89 501.77L721.32 503.35C721.216 503.452 721.133 503.575 721.076 503.709C721.02 503.844 720.991 503.989 720.991 504.135C720.991 504.281 721.02 504.426 721.076 504.561C721.133 504.695 721.216 504.818 721.32 504.92L728.56 512.16C728.662 512.264 728.785 512.347 728.919 512.404C729.054 512.46 729.199 512.489 729.345 512.489C729.491 512.489 729.636 512.46 729.771 512.404C729.905 512.347 730.028 512.264 730.13 512.16V512.14Z" fill="#3ACC6C"/>
<path d="M540.19 692.54C540.19 695.956 539.177 699.295 537.279 702.135C535.382 704.975 532.685 707.188 529.529 708.495C526.373 709.803 522.901 710.145 519.551 709.478C516.201 708.812 513.124 707.167 510.708 704.752C508.293 702.336 506.648 699.259 505.982 695.909C505.316 692.559 505.657 689.087 506.965 685.931C508.272 682.775 510.485 680.078 513.325 678.181C516.165 676.283 519.504 675.27 522.92 675.27C527.5 675.27 531.893 677.09 535.132 680.328C538.371 683.567 540.19 687.96 540.19 692.54ZM520.92 701.68L533.78 688.87C533.885 688.767 533.968 688.644 534.024 688.508C534.081 688.372 534.11 688.227 534.11 688.08C534.11 687.933 534.081 687.788 534.024 687.652C533.968 687.516 533.885 687.393 533.78 687.29L532.16 685.77C532.057 685.665 531.934 685.582 531.798 685.526C531.663 685.469 531.517 685.44 531.37 685.44C531.223 685.44 531.078 685.469 530.942 685.526C530.806 685.582 530.683 685.665 530.58 685.77L520.13 696.17L515.25 691.29C515.148 691.186 515.025 691.103 514.891 691.046C514.756 690.99 514.611 690.961 514.465 690.961C514.319 690.961 514.174 690.99 514.039 691.046C513.905 691.103 513.782 691.186 513.68 691.29L512.1 692.86C511.894 693.071 511.778 693.355 511.778 693.65C511.778 693.945 511.894 694.229 512.1 694.44L519.34 701.68C519.443 701.785 519.566 701.868 519.702 701.924C519.838 701.981 519.983 702.01 520.13 702.01C520.277 702.01 520.423 701.981 520.558 701.924C520.694 701.868 520.817 701.785 520.92 701.68Z" fill="#3ACC6C"/>
<path d="M540.19 881.2C540.19 884.616 539.177 887.955 537.279 890.795C535.382 893.635 532.685 895.848 529.529 897.155C526.373 898.463 522.901 898.805 519.551 898.138C516.201 897.472 513.124 895.827 510.708 893.412C508.293 890.996 506.648 887.919 505.982 884.569C505.316 881.219 505.657 877.747 506.965 874.591C508.272 871.435 510.485 868.738 513.325 866.841C516.165 864.943 519.504 863.93 522.92 863.93C527.5 863.93 531.893 865.75 535.132 868.988C538.371 872.227 540.19 876.62 540.19 881.2ZM520.92 890.34L533.78 877.53C533.885 877.427 533.968 877.304 534.024 877.168C534.081 877.033 534.11 876.887 534.11 876.74C534.11 876.593 534.081 876.448 534.024 876.312C533.968 876.176 533.885 876.053 533.78 875.95L532.21 874.38C532.107 874.275 531.984 874.192 531.848 874.136C531.713 874.079 531.567 874.05 531.42 874.05C531.273 874.05 531.128 874.079 530.992 874.136C530.856 874.192 530.733 874.275 530.63 874.38L520.18 884.83L515.3 879.95C515.198 879.846 515.075 879.763 514.941 879.706C514.806 879.65 514.661 879.621 514.515 879.621C514.369 879.621 514.224 879.65 514.089 879.706C513.955 879.763 513.832 879.846 513.73 879.95L512.15 881.52C511.944 881.731 511.828 882.015 511.828 882.31C511.828 882.605 511.944 882.889 512.15 883.1L519.39 890.34C519.493 890.445 519.616 890.528 519.752 890.584C519.888 890.641 520.033 890.67 520.18 890.67C520.327 890.67 520.473 890.641 520.608 890.584C520.744 890.528 520.867 890.445 520.97 890.34H520.92Z" fill="#3ACC6C"/>
</g>
<path d="M699.12 82.592L706.608 58.448H711.696L719.184 82.592L727.632 58.448H733.728L722.016 92H716.4L709.344 69.008H708.96L701.904 92H696.288L684.576 58.448H690.672L699.12 82.592ZM762.521 58.448V63.776H744.617V72.656H760.697V77.696H744.617V86.672H763.097V92H738.953V58.448H762.521ZM785.047 92H770.359V58.448H783.415C785.687 58.448 787.639 58.72 789.271 59.264C790.935 59.808 792.167 60.544 792.967 61.472C794.503 63.2 795.271 65.152 795.271 67.328C795.271 69.952 794.439 71.904 792.775 73.184C792.167 73.632 791.751 73.92 791.527 74.048C791.303 74.144 790.903 74.32 790.327 74.576C792.407 75.024 794.055 75.968 795.271 77.408C796.519 78.816 797.143 80.576 797.143 82.688C797.143 85.024 796.343 87.088 794.743 88.88C792.855 90.96 789.623 92 785.047 92ZM776.023 72.368H783.223C787.319 72.368 789.367 70.976 789.367 68.192C789.367 66.592 788.871 65.44 787.879 64.736C786.887 64.032 785.351 63.68 783.271 63.68H776.023V72.368ZM776.023 86.768H784.903C786.983 86.768 788.567 86.448 789.655 85.808C790.775 85.136 791.335 83.888 791.335 82.064C791.335 79.088 788.951 77.6 784.183 77.6H776.023V86.768ZM803.05 98.624V95.888H830.794V98.624H803.05ZM853.578 92H838.89V58.448H851.946C854.218 58.448 856.17 58.72 857.802 59.264C859.466 59.808 860.698 60.544 861.498 61.472C863.034 63.2 863.802 65.152 863.802 67.328C863.802 69.952 862.97 71.904 861.306 73.184C860.698 73.632 860.282 73.92 860.058 74.048C859.834 74.144 859.434 74.32 858.858 74.576C860.938 75.024 862.586 75.968 863.802 77.408C865.05 78.816 865.674 80.576 865.674 82.688C865.674 85.024 864.874 87.088 863.274 88.88C861.386 90.96 858.154 92 853.578 92ZM844.554 72.368H851.754C855.85 72.368 857.898 70.976 857.898 68.192C857.898 66.592 857.402 65.44 856.41 64.736C855.418 64.032 853.882 63.68 851.802 63.68H844.554V72.368ZM844.554 86.768H853.434C855.514 86.768 857.098 86.448 858.186 85.808C859.306 85.136 859.866 83.888 859.866 82.064C859.866 79.088 857.482 77.6 852.714 77.6H844.554V86.768ZM899.565 69.344C899.565 74.88 897.149 78.368 892.317 79.808L901.101 92H893.901L885.885 80.72H878.445V92H872.781V58.448H885.261C890.381 58.448 894.045 59.312 896.253 61.04C898.461 62.768 899.565 65.536 899.565 69.344ZM885.501 75.584C888.701 75.584 890.877 75.088 892.029 74.096C893.181 73.104 893.757 71.52 893.757 69.344C893.757 67.136 893.165 65.632 891.981 64.832C890.797 64 888.685 63.584 885.645 63.584H878.445V75.584H885.501ZM931.607 66.368C929.335 64 926.535 62.816 923.207 62.816C919.879 62.816 917.063 64 914.759 66.368C912.487 68.736 911.351 71.616 911.351 75.008C911.351 78.368 912.487 81.232 914.759 83.6C917.063 85.968 919.879 87.152 923.207 87.152C926.535 87.152 929.335 85.968 931.607 83.6C933.911 81.232 935.063 78.368 935.063 75.008C935.063 71.616 933.911 68.736 931.607 66.368ZM935.783 87.392C932.391 90.688 928.199 92.336 923.207 92.336C918.215 92.336 914.023 90.688 910.631 87.392C907.239 84.064 905.543 79.936 905.543 75.008C905.543 70.048 907.239 65.92 910.631 62.624C914.023 59.296 918.215 57.632 923.207 57.632C928.199 57.632 932.391 59.296 935.783 62.624C939.175 65.92 940.871 70.048 940.871 75.008C940.871 79.936 939.175 84.064 935.783 87.392ZM948.015 58.448H953.679V74.816L969.039 58.448H976.239L962.751 73.136L976.431 92H969.711L958.575 77.312L953.679 82.592V92H948.015V58.448ZM1005.38 58.448V63.776H987.476V72.656H1003.56V77.696H987.476V86.672H1005.96V92H981.812V58.448H1005.38ZM1040 69.344C1040 74.88 1037.59 78.368 1032.75 79.808L1041.54 92H1034.34L1026.32 80.72H1018.88V92H1013.22V58.448H1025.7C1030.82 58.448 1034.48 59.312 1036.69 61.04C1038.9 62.768 1040 65.536 1040 69.344ZM1025.94 75.584C1029.14 75.584 1031.31 75.088 1032.47 74.096C1033.62 73.104 1034.19 71.52 1034.19 69.344C1034.19 67.136 1033.6 65.632 1032.42 64.832C1031.23 64 1029.12 63.584 1026.08 63.584H1018.88V75.584H1025.94Z" fill="white"/>
<path d="M699.12 82.592L698.176 82.9223L699.177 85.7834L700.075 82.8882L699.12 82.592ZM706.608 58.448V57.448H705.871L705.653 58.1518L706.608 58.448ZM711.696 58.448L712.651 58.1518L712.433 57.448H711.696V58.448ZM719.184 82.592L718.229 82.8882L719.127 85.7834L720.128 82.9223L719.184 82.592ZM727.632 58.448V57.448H726.922L726.688 58.1177L727.632 58.448ZM733.728 58.448L734.672 58.7776L735.136 57.448H733.728V58.448ZM722.016 92V93H722.726L722.96 92.3296L722.016 92ZM716.4 92L715.444 92.2934L715.661 93H716.4V92ZM709.344 69.008L710.3 68.7146L710.083 68.008H709.344V69.008ZM708.96 69.008V68.008H708.221L708.004 68.7146L708.96 69.008ZM701.904 92V93H702.643L702.86 92.2934L701.904 92ZM696.288 92L695.344 92.3296L695.578 93H696.288V92ZM684.576 58.448V57.448H683.168L683.632 58.7776L684.576 58.448ZM690.672 58.448L691.616 58.1177L691.382 57.448H690.672V58.448ZM700.075 82.8882L707.563 58.7442L705.653 58.1518L698.165 82.2958L700.075 82.8882ZM706.608 59.448H711.696V57.448H706.608V59.448ZM710.741 58.7442L718.229 82.8882L720.139 82.2958L712.651 58.1518L710.741 58.7442ZM720.128 82.9223L728.576 58.7783L726.688 58.1177L718.24 82.2617L720.128 82.9223ZM727.632 59.448H733.728V57.448H727.632V59.448ZM732.784 58.1184L721.072 91.6704L722.96 92.3296L734.672 58.7776L732.784 58.1184ZM722.016 91H716.4V93H722.016V91ZM717.356 91.7066L710.3 68.7146L708.388 69.3014L715.444 92.2934L717.356 91.7066ZM709.344 68.008H708.96V70.008H709.344V68.008ZM708.004 68.7146L700.948 91.7066L702.86 92.2934L709.916 69.3014L708.004 68.7146ZM701.904 91H696.288V93H701.904V91ZM697.232 91.6704L685.52 58.1184L683.632 58.7776L695.344 92.3296L697.232 91.6704ZM684.576 59.448H690.672V57.448H684.576V59.448ZM689.728 58.7783L698.176 82.9223L700.064 82.2617L691.616 58.1177L689.728 58.7783ZM762.521 58.448H763.521V57.448H762.521V58.448ZM762.521 63.776V64.776H763.521V63.776H762.521ZM744.617 63.776V62.776H743.617V63.776H744.617ZM744.617 72.656H743.617V73.656H744.617V72.656ZM760.697 72.656H761.697V71.656H760.697V72.656ZM760.697 77.696V78.696H761.697V77.696H760.697ZM744.617 77.696V76.696H743.617V77.696H744.617ZM744.617 86.672H743.617V87.672H744.617V86.672ZM763.097 86.672H764.097V85.672H763.097V86.672ZM763.097 92V93H764.097V92H763.097ZM738.953 92H737.953V93H738.953V92ZM738.953 58.448V57.448H737.953V58.448H738.953ZM761.521 58.448V63.776H763.521V58.448H761.521ZM762.521 62.776H744.617V64.776H762.521V62.776ZM743.617 63.776V72.656H745.617V63.776H743.617ZM744.617 73.656H760.697V71.656H744.617V73.656ZM759.697 72.656V77.696H761.697V72.656H759.697ZM760.697 76.696H744.617V78.696H760.697V76.696ZM743.617 77.696V86.672H745.617V77.696H743.617ZM744.617 87.672H763.097V85.672H744.617V87.672ZM762.097 86.672V92H764.097V86.672H762.097ZM763.097 91H738.953V93H763.097V91ZM739.953 92V58.448H737.953V92H739.953ZM738.953 59.448H762.521V57.448H738.953V59.448ZM770.359 92H769.359V93H770.359V92ZM770.359 58.448V57.448H769.359V58.448H770.359ZM789.271 59.264L788.955 60.2127L788.96 60.2145L789.271 59.264ZM792.967 61.472L792.21 62.1249L792.215 62.1307L792.22 62.1364L792.967 61.472ZM792.775 73.184L793.368 73.9891L793.377 73.9829L793.385 73.9766L792.775 73.184ZM791.527 74.048L791.921 74.9671L791.974 74.9446L792.023 74.9162L791.527 74.048ZM790.327 74.576L789.921 73.6622L787.118 74.9078L790.117 75.5536L790.327 74.576ZM795.271 77.408L794.507 78.0532L794.515 78.0623L794.523 78.0713L795.271 77.408ZM794.743 88.88L795.484 89.5521L795.489 89.546L794.743 88.88ZM776.023 72.368H775.023V73.368H776.023V72.368ZM787.879 64.736L787.3 65.5515L787.879 64.736ZM776.023 63.68V62.68H775.023V63.68H776.023ZM776.023 86.768H775.023V87.768H776.023V86.768ZM789.655 85.808L790.162 86.67L790.17 86.6655L789.655 85.808ZM776.023 77.6V76.6H775.023V77.6H776.023ZM785.047 91H770.359V93H785.047V91ZM771.359 92V58.448H769.359V92H771.359ZM770.359 59.448H783.415V57.448H770.359V59.448ZM783.415 59.448C785.612 59.448 787.452 59.7116 788.955 60.2127L789.587 58.3153C787.827 57.7284 785.762 57.448 783.415 57.448V59.448ZM788.96 60.2145C790.521 60.7249 791.569 61.3819 792.21 62.1249L793.725 60.8191C792.765 59.7061 791.349 58.8911 789.582 58.3135L788.96 60.2145ZM792.22 62.1364C793.604 63.6938 794.271 65.4131 794.271 67.328H796.271C796.271 64.8909 795.402 62.7062 793.715 60.8076L792.22 62.1364ZM794.271 67.328C794.271 69.7272 793.523 71.3474 792.165 72.3914L793.385 73.9766C795.356 72.4606 796.271 70.1768 796.271 67.328H794.271ZM792.182 72.3789C791.567 72.8321 791.197 73.0852 791.031 73.1798L792.023 74.9162C792.306 74.7548 792.767 74.4319 793.368 73.9891L792.182 72.3789ZM791.133 73.1289C790.902 73.2278 790.497 73.4063 789.921 73.6622L790.733 75.4898C791.31 75.2337 791.704 75.0602 791.921 74.9671L791.133 73.1289ZM790.117 75.5536C792.01 75.9613 793.452 76.8037 794.507 78.0532L796.035 76.7628C794.658 75.1323 792.805 74.0867 790.538 73.5984L790.117 75.5536ZM794.523 78.0713C795.589 79.2737 796.143 80.7883 796.143 82.688H798.143C798.143 80.3637 797.45 78.3583 796.019 76.7447L794.523 78.0713ZM796.143 82.688C796.143 84.7708 795.439 86.5995 793.997 88.214L795.489 89.546C797.248 87.5765 798.143 85.2772 798.143 82.688H796.143ZM794.003 88.2079C792.395 89.9789 789.513 91 785.047 91V93C789.733 93 793.315 91.9411 795.484 89.5521L794.003 88.2079ZM776.023 73.368H783.223V71.368H776.023V73.368ZM783.223 73.368C785.353 73.368 787.127 73.0117 788.393 72.151C789.729 71.2434 790.367 69.8671 790.367 68.192H788.367C788.367 69.3009 787.982 70.0126 787.269 70.497C786.487 71.0283 785.189 71.368 783.223 71.368V73.368ZM790.367 68.192C790.367 66.3804 789.794 64.8688 788.458 63.9205L787.3 65.5515C787.948 66.0112 788.367 66.8036 788.367 68.192H790.367ZM788.458 63.9205C787.214 63.0379 785.427 62.68 783.271 62.68V64.68C785.275 64.68 786.56 65.0261 787.3 65.5515L788.458 63.9205ZM783.271 62.68H776.023V64.68H783.271V62.68ZM775.023 63.68V72.368H777.023V63.68H775.023ZM776.023 87.768H784.903V85.768H776.023V87.768ZM784.903 87.768C787.058 87.768 788.851 87.4412 790.162 86.6699L789.148 84.9461C788.283 85.4548 786.908 85.768 784.903 85.768V87.768ZM790.17 86.6655C791.703 85.7453 792.335 84.0846 792.335 82.064H790.335C790.335 83.6914 789.847 84.5267 789.141 84.9505L790.17 86.6655ZM792.335 82.064C792.335 80.2556 791.582 78.807 790.077 77.8677C788.65 76.9773 786.639 76.6 784.183 76.6V78.6C786.495 78.6 788.06 78.9667 789.018 79.5643C789.897 80.113 790.335 80.8964 790.335 82.064H792.335ZM784.183 76.6H776.023V78.6H784.183V76.6ZM775.023 77.6V86.768H777.023V77.6H775.023ZM803.05 98.624H802.05V99.624H803.05V98.624ZM803.05 95.888V94.888H802.05V95.888H803.05ZM830.794 95.888H831.794V94.888H830.794V95.888ZM830.794 98.624V99.624H831.794V98.624H830.794ZM804.05 98.624V95.888H802.05V98.624H804.05ZM803.05 96.888H830.794V94.888H803.05V96.888ZM829.794 95.888V98.624H831.794V95.888H829.794ZM830.794 97.624H803.05V99.624H830.794V97.624ZM838.89 92H837.89V93H838.89V92ZM838.89 58.448V57.448H837.89V58.448H838.89ZM857.802 59.264L857.486 60.2127L857.492 60.2145L857.802 59.264ZM861.498 61.472L860.741 62.1249L860.746 62.1307L860.751 62.1364L861.498 61.472ZM861.306 73.184L861.9 73.9891L861.908 73.9829L861.916 73.9766L861.306 73.184ZM860.058 74.048L860.452 74.9671L860.505 74.9446L860.555 74.9162L860.058 74.048ZM858.858 74.576L858.452 73.6622L855.65 74.9078L858.648 75.5536L858.858 74.576ZM863.802 77.408L863.038 78.0532L863.046 78.0623L863.054 78.0713L863.802 77.408ZM863.274 88.88L864.015 89.5521L864.02 89.546L863.274 88.88ZM844.554 72.368H843.554V73.368H844.554V72.368ZM856.41 64.736L855.832 65.5515L856.41 64.736ZM844.554 63.68V62.68H843.554V63.68H844.554ZM844.554 86.768H843.554V87.768H844.554V86.768ZM858.186 85.808L858.693 86.67L858.701 86.6655L858.186 85.808ZM844.554 77.6V76.6H843.554V77.6H844.554ZM853.578 91H838.89V93H853.578V91ZM839.89 92V58.448H837.89V92H839.89ZM838.89 59.448H851.946V57.448H838.89V59.448ZM851.946 59.448C854.143 59.448 855.983 59.7116 857.486 60.2127L858.119 58.3153C856.358 57.7284 854.293 57.448 851.946 57.448V59.448ZM857.492 60.2145C859.053 60.7249 860.1 61.3819 860.741 62.1249L862.256 60.8191C861.296 59.7061 859.88 58.8911 858.113 58.3135L857.492 60.2145ZM860.751 62.1364C862.135 63.6938 862.802 65.4131 862.802 67.328H864.802C864.802 64.8909 863.933 62.7062 862.246 60.8076L860.751 62.1364ZM862.802 67.328C862.802 69.7272 862.054 71.3474 860.697 72.3914L861.916 73.9766C863.887 72.4606 864.802 70.1768 864.802 67.328H862.802ZM860.713 72.3789C860.098 72.8321 859.728 73.0852 859.562 73.1798L860.555 74.9162C860.837 74.7548 861.299 74.4319 861.9 73.9891L860.713 72.3789ZM859.664 73.1289C859.434 73.2278 859.028 73.4063 858.452 73.6622L859.265 75.4898C859.841 75.2337 860.235 75.0602 860.452 74.9671L859.664 73.1289ZM858.648 75.5536C860.541 75.9613 861.983 76.8037 863.038 78.0532L864.566 76.7628C863.19 75.1323 861.336 74.0867 859.069 73.5984L858.648 75.5536ZM863.054 78.0713C864.12 79.2737 864.674 80.7883 864.674 82.688H866.674C866.674 80.3637 865.981 78.3583 864.551 76.7447L863.054 78.0713ZM864.674 82.688C864.674 84.7708 863.97 86.5995 862.528 88.214L864.02 89.546C865.779 87.5765 866.674 85.2772 866.674 82.688H864.674ZM862.534 88.2079C860.926 89.9789 858.044 91 853.578 91V93C858.264 93 861.846 91.9411 864.015 89.5521L862.534 88.2079ZM844.554 73.368H851.754V71.368H844.554V73.368ZM851.754 73.368C853.884 73.368 855.658 73.0117 856.925 72.151C858.26 71.2434 858.898 69.8671 858.898 68.192H856.898C856.898 69.3009 856.513 70.0126 855.8 70.497C855.019 71.0283 853.72 71.368 851.754 71.368V73.368ZM858.898 68.192C858.898 66.3804 858.325 64.8688 856.989 63.9205L855.832 65.5515C856.479 66.0112 856.898 66.8036 856.898 68.192H858.898ZM856.989 63.9205C855.745 63.0379 853.958 62.68 851.802 62.68V64.68C853.807 64.68 855.091 65.0261 855.832 65.5515L856.989 63.9205ZM851.802 62.68H844.554V64.68H851.802V62.68ZM843.554 63.68V72.368H845.554V63.68H843.554ZM844.554 87.768H853.434V85.768H844.554V87.768ZM853.434 87.768C855.59 87.768 857.382 87.4412 858.693 86.6699L857.679 84.9461C856.815 85.4548 855.439 85.768 853.434 85.768V87.768ZM858.701 86.6655C860.234 85.7453 860.866 84.0846 860.866 82.064H858.866C858.866 83.6914 858.378 84.5267 857.672 84.9505L858.701 86.6655ZM860.866 82.064C860.866 80.2556 860.113 78.807 858.608 77.8677C857.181 76.9773 855.17 76.6 852.714 76.6V78.6C855.027 78.6 856.591 78.9667 857.549 79.5643C858.428 80.113 858.866 80.8964 858.866 82.064H860.866ZM852.714 76.6H844.554V78.6H852.714V76.6ZM843.554 77.6V86.768H845.554V77.6H843.554ZM892.317 79.808L892.031 78.8497L890.683 79.2514L891.506 80.3926L892.317 79.808ZM901.101 92V93H903.054L901.912 91.4154L901.101 92ZM893.901 92L893.086 92.5793L893.385 93H893.901V92ZM885.885 80.72L886.7 80.1407L886.401 79.72H885.885V80.72ZM878.445 80.72V79.72H877.445V80.72H878.445ZM878.445 92V93H879.445V92H878.445ZM872.781 92H871.781V93H872.781V92ZM872.781 58.448V57.448H871.781V58.448H872.781ZM892.029 74.096L891.376 73.3382L892.029 74.096ZM891.981 64.832L891.406 65.6502L891.414 65.6555L891.421 65.6606L891.981 64.832ZM878.445 63.584V62.584H877.445V63.584H878.445ZM878.445 75.584H877.445V76.584H878.445V75.584ZM898.565 69.344C898.565 71.97 897.992 74.0101 896.931 75.5426C895.876 77.0662 894.272 78.1819 892.031 78.8497L892.603 80.7663C895.194 79.9941 897.214 78.6458 898.575 76.6814C899.93 74.7259 900.565 72.254 900.565 69.344H898.565ZM891.506 80.3926L900.29 92.5846L901.912 91.4154L893.128 79.2234L891.506 80.3926ZM901.101 91H893.901V93H901.101V91ZM894.716 91.4207L886.7 80.1407L885.07 81.2993L893.086 92.5793L894.716 91.4207ZM885.885 79.72H878.445V81.72H885.885V79.72ZM877.445 80.72V92H879.445V80.72H877.445ZM878.445 91H872.781V93H878.445V91ZM873.781 92V58.448H871.781V92H873.781ZM872.781 59.448H885.261V57.448H872.781V59.448ZM885.261 59.448C890.32 59.448 893.7 60.3116 895.637 61.8275L896.869 60.2525C894.39 58.3124 890.442 57.448 885.261 57.448V59.448ZM895.637 61.8275C897.523 63.3036 898.565 65.7258 898.565 69.344H900.565C900.565 65.3462 899.399 62.2324 896.869 60.2525L895.637 61.8275ZM885.501 76.584C887.146 76.584 888.57 76.4571 889.755 76.187C890.933 75.9185 891.938 75.4943 892.682 74.8538L891.376 73.3382C890.968 73.6896 890.309 74.0095 889.311 74.237C888.32 74.4629 887.056 74.584 885.501 74.584V76.584ZM892.682 74.8538C894.136 73.6011 894.757 71.6817 894.757 69.344H892.757C892.757 71.3583 892.226 72.6069 891.376 73.3382L892.682 74.8538ZM894.757 69.344C894.757 66.9928 894.126 65.0747 892.541 64.0034L891.421 65.6606C892.204 66.1893 892.757 67.2792 892.757 69.344H894.757ZM892.556 64.0138C891.099 62.9897 888.707 62.584 885.645 62.584V64.584C888.663 64.584 890.495 65.0103 891.406 65.6502L892.556 64.0138ZM885.645 62.584H878.445V64.584H885.645V62.584ZM877.445 63.584V75.584H879.445V63.584H877.445ZM878.445 76.584H885.501V74.584H878.445V76.584ZM931.607 66.368L930.885 67.0603L930.89 67.0654L931.607 66.368ZM914.759 66.368L914.042 65.6706L914.037 65.6757L914.759 66.368ZM914.759 83.6L914.037 84.2923L914.042 84.2974L914.759 83.6ZM931.607 83.6L930.89 82.9026L930.885 82.9077L931.607 83.6ZM935.783 87.392L936.48 88.1092L936.483 88.1058L935.783 87.392ZM910.631 87.392L909.931 88.1058L909.934 88.1092L910.631 87.392ZM910.631 62.624L911.328 63.3412L911.331 63.3378L910.631 62.624ZM935.783 62.624L935.083 63.3378L935.086 63.3412L935.783 62.624ZM932.328 65.6757C929.865 63.108 926.803 61.816 923.207 61.816V63.816C926.267 63.816 928.805 64.892 930.885 67.0603L932.328 65.6757ZM923.207 61.816C919.611 61.816 916.536 63.1076 914.042 65.6706L915.476 67.0654C917.59 64.8924 920.147 63.816 923.207 63.816V61.816ZM914.037 65.6757C911.58 68.2367 910.351 71.3676 910.351 75.008H912.351C912.351 71.8644 913.394 69.2353 915.48 67.0603L914.037 65.6757ZM910.351 75.008C910.351 78.6192 911.582 81.7332 914.037 84.2923L915.48 82.9077C913.392 80.7308 912.351 78.1168 912.351 75.008H910.351ZM914.042 84.2974C916.536 86.8604 919.611 88.152 923.207 88.152V86.152C920.147 86.152 917.59 85.0756 915.476 82.9026L914.042 84.2974ZM923.207 88.152C926.803 88.152 929.865 86.86 932.328 84.2923L930.885 82.9077C928.805 85.076 926.267 86.152 923.207 86.152V88.152ZM932.324 84.2974C934.813 81.7392 936.063 78.6235 936.063 75.008H934.063C934.063 78.1125 933.009 80.7248 930.89 82.9026L932.324 84.2974ZM936.063 75.008C936.063 71.3633 934.815 68.2308 932.324 65.6706L930.89 67.0654C933.007 69.2412 934.063 71.8687 934.063 75.008H936.063ZM935.086 86.6748C931.892 89.7786 927.955 91.336 923.207 91.336V93.336C928.443 93.336 932.89 91.5974 936.48 88.1092L935.086 86.6748ZM923.207 91.336C918.459 91.336 914.522 89.7786 911.328 86.6748L909.934 88.1092C913.524 91.5974 917.971 93.336 923.207 93.336V91.336ZM911.331 86.6782C908.139 83.5459 906.543 79.6786 906.543 75.008H904.543C904.543 80.1934 906.339 84.5821 909.931 88.1058L911.331 86.6782ZM906.543 75.008C906.543 70.3035 908.14 66.4389 911.328 63.3412L909.934 61.9068C906.338 65.4011 904.543 69.7925 904.543 75.008H906.543ZM911.331 63.3378C914.526 60.2033 918.462 58.632 923.207 58.632V56.632C917.968 56.632 913.52 58.3887 909.931 61.9102L911.331 63.3378ZM923.207 58.632C927.952 58.632 931.888 60.2033 935.083 63.3378L936.483 61.9102C932.894 58.3887 928.446 56.632 923.207 56.632V58.632ZM935.086 63.3412C938.274 66.4389 939.871 70.3035 939.871 75.008H941.871C941.871 69.7925 940.076 65.4011 936.48 61.9068L935.086 63.3412ZM939.871 75.008C939.871 79.6786 938.275 83.5459 935.083 86.6782L936.483 88.1058C940.075 84.5821 941.871 80.1934 941.871 75.008H939.871ZM948.015 58.448V57.448H947.015V58.448H948.015ZM953.679 58.448H954.679V57.448H953.679V58.448ZM953.679 74.816H952.679V77.343L954.409 75.5003L953.679 74.816ZM969.039 58.448V57.448H968.606L968.31 57.7637L969.039 58.448ZM976.239 58.448L976.976 59.1244L978.515 57.448H976.239V58.448ZM962.751 73.136L962.015 72.4596L961.462 73.0615L961.942 73.7231L962.751 73.136ZM976.431 92V93H978.392L977.241 91.4129L976.431 92ZM969.711 92L968.915 92.6042L969.215 93H969.711V92ZM958.575 77.312L959.372 76.7078L958.652 75.7583L957.842 76.6321L958.575 77.312ZM953.679 82.592L952.946 81.9121L952.679 82.1997V82.592H953.679ZM953.679 92V93H954.679V92H953.679ZM948.015 92H947.015V93H948.015V92ZM948.015 59.448H953.679V57.448H948.015V59.448ZM952.679 58.448V74.816H954.679V58.448H952.679ZM954.409 75.5003L969.769 59.1323L968.31 57.7637L952.95 74.1317L954.409 75.5003ZM969.039 59.448H976.239V57.448H969.039V59.448ZM975.503 57.7716L962.015 72.4596L963.488 73.8124L976.976 59.1244L975.503 57.7716ZM961.942 73.7231L975.622 92.5871L977.241 91.4129L963.561 72.5489L961.942 73.7231ZM976.431 91H969.711V93H976.431V91ZM970.508 91.3958L959.372 76.7078L957.779 77.9162L968.915 92.6042L970.508 91.3958ZM957.842 76.6321L952.946 81.9121L954.413 83.2719L959.309 77.9919L957.842 76.6321ZM952.679 82.592V92H954.679V82.592H952.679ZM953.679 91H948.015V93H953.679V91ZM949.015 92V58.448H947.015V92H949.015ZM1005.38 58.448H1006.38V57.448H1005.38V58.448ZM1005.38 63.776V64.776H1006.38V63.776H1005.38ZM987.476 63.776V62.776H986.476V63.776H987.476ZM987.476 72.656H986.476V73.656H987.476V72.656ZM1003.56 72.656H1004.56V71.656H1003.56V72.656ZM1003.56 77.696V78.696H1004.56V77.696H1003.56ZM987.476 77.696V76.696H986.476V77.696H987.476ZM987.476 86.672H986.476V87.672H987.476V86.672ZM1005.96 86.672H1006.96V85.672H1005.96V86.672ZM1005.96 92V93H1006.96V92H1005.96ZM981.812 92H980.812V93H981.812V92ZM981.812 58.448V57.448H980.812V58.448H981.812ZM1004.38 58.448V63.776H1006.38V58.448H1004.38ZM1005.38 62.776H987.476V64.776H1005.38V62.776ZM986.476 63.776V72.656H988.476V63.776H986.476ZM987.476 73.656H1003.56V71.656H987.476V73.656ZM1002.56 72.656V77.696H1004.56V72.656H1002.56ZM1003.56 76.696H987.476V78.696H1003.56V76.696ZM986.476 77.696V86.672H988.476V77.696H986.476ZM987.476 87.672H1005.96V85.672H987.476V87.672ZM1004.96 86.672V92H1006.96V86.672H1004.96ZM1005.96 91H981.812V93H1005.96V91ZM982.812 92V58.448H980.812V92H982.812ZM981.812 59.448H1005.38V57.448H981.812V59.448ZM1032.75 79.808L1032.47 78.8497L1031.12 79.2514L1031.94 80.3926L1032.75 79.808ZM1041.54 92V93H1043.49L1042.35 91.4154L1041.54 92ZM1034.34 92L1033.52 92.5793L1033.82 93H1034.34V92ZM1026.32 80.72L1027.14 80.1407L1026.84 79.72H1026.32V80.72ZM1018.88 80.72V79.72H1017.88V80.72H1018.88ZM1018.88 92V93H1019.88V92H1018.88ZM1013.22 92H1012.22V93H1013.22V92ZM1013.22 58.448V57.448H1012.22V58.448H1013.22ZM1032.47 74.096L1031.81 73.3382L1032.47 74.096ZM1032.42 64.832L1031.84 65.6502L1031.85 65.6555L1031.86 65.6606L1032.42 64.832ZM1018.88 63.584V62.584H1017.88V63.584H1018.88ZM1018.88 75.584H1017.88V76.584H1018.88V75.584ZM1039 69.344C1039 71.97 1038.43 74.0101 1037.37 75.5426C1036.31 77.0662 1034.71 78.1819 1032.47 78.8497L1033.04 80.7663C1035.63 79.9941 1037.65 78.6458 1039.01 76.6814C1040.37 74.7259 1041 72.254 1041 69.344H1039ZM1031.94 80.3926L1040.73 92.5846L1042.35 91.4154L1033.57 79.2234L1031.94 80.3926ZM1041.54 91H1034.34V93H1041.54V91ZM1035.15 91.4207L1027.14 80.1407L1025.51 81.2993L1033.52 92.5793L1035.15 91.4207ZM1026.32 79.72H1018.88V81.72H1026.32V79.72ZM1017.88 80.72V92H1019.88V80.72H1017.88ZM1018.88 91H1013.22V93H1018.88V91ZM1014.22 92V58.448H1012.22V92H1014.22ZM1013.22 59.448H1025.7V57.448H1013.22V59.448ZM1025.7 59.448C1030.76 59.448 1034.14 60.3116 1036.07 61.8275L1037.31 60.2525C1034.83 58.3124 1030.88 57.448 1025.7 57.448V59.448ZM1036.07 61.8275C1037.96 63.3036 1039 65.7258 1039 69.344H1041C1041 65.3462 1039.84 62.2324 1037.31 60.2525L1036.07 61.8275ZM1025.94 76.584C1027.58 76.584 1029.01 76.4571 1030.19 76.187C1031.37 75.9185 1032.38 75.4943 1033.12 74.8538L1031.81 73.3382C1031.41 73.6896 1030.75 74.0095 1029.75 74.237C1028.76 74.4629 1027.49 74.584 1025.94 74.584V76.584ZM1033.12 74.8538C1034.57 73.6011 1035.19 71.6817 1035.19 69.344H1033.19C1033.19 71.3583 1032.66 72.6069 1031.81 73.3382L1033.12 74.8538ZM1035.19 69.344C1035.19 66.9928 1034.56 65.0747 1032.98 64.0034L1031.86 65.6606C1032.64 66.1893 1033.19 67.2792 1033.19 69.344H1035.19ZM1032.99 64.0138C1031.54 62.9897 1029.14 62.584 1026.08 62.584V64.584C1029.1 64.584 1030.93 65.0103 1031.84 65.6502L1032.99 64.0138ZM1026.08 62.584H1018.88V64.584H1026.08V62.584ZM1017.88 63.584V75.584H1019.88V63.584H1017.88ZM1018.88 76.584H1025.94V74.584H1018.88V76.584Z" fill="white"/>
<defs>
<linearGradient id="paint0_linear" x1="535.54" y1="926.46" x2="535.54" y2="221" gradientUnits="userSpaceOnUse">
<stop stop-color="#808080" stop-opacity="0.25"/>
<stop offset="0.54" stop-color="#808080" stop-opacity="0.12"/>
<stop offset="1" stop-color="#808080" stop-opacity="0.1"/>
</linearGradient>
<linearGradient id="paint1_linear" x1="49724.6" y1="376354" x2="49724.6" y2="165552" gradientUnits="userSpaceOnUse">
<stop stop-color="#808080" stop-opacity="0.25"/>
<stop offset="0.54" stop-color="#808080" stop-opacity="0.12"/>
<stop offset="1" stop-color="#808080" stop-opacity="0.1"/>
</linearGradient>
<clipPath id="clip0">
<rect width="1015.56" height="783.53" fill="white" transform="translate(0 221)"/>
</clipPath>
</defs>
</svg>
